<?xml version="1.0" encoding="utf-8"?>
<!-- Generator: Adobe Illustrator 21.0.0, SVG Export Plug-In . SVG Version: 6.00 Build 0)  -->
<svg version="1.1" id="Layer_1" xmlns="http://www.w3.org/2000/svg" xmlns:xlink="http://www.w3.org/1999/xlink" x="0px" y="0px"
	 viewBox="0 0 760.8 73.6" style="enable-background:new 0 0 760.8 73.6;" xml:space="preserve">
<style type="text/css">
	.st0{fill:#FFFFFF;}
	.st1{fill:none;stroke:#221F1F;stroke-width:0.9;stroke-linecap:round;stroke-linejoin:round;stroke-miterlimit:10;}
	.st2{fill:none;}
	.st3{fill:none;stroke:#221F1F;stroke-width:0.9;stroke-miterlimit:10;}
</style>
<path class="st0" d="M0,56.3l0-36.9h14.3L21.1,44l6.7-24.7h14v36.9h-9.7V29.1l-7.7,27.1h-8.4l-7.7-27v27H0z"/>
<path class="st0" d="M63.5,19.4h10.1v36.9H63.5V19.4z"/>
<path class="st0" d="M111.5,18.6c9.3,0,14.3,5,15.5,13.2l-9.2,1.1c-0.7-5.3-2.6-7.5-6.2-7.5c-4.3,0-6.9,3.4-6.9,12.4v0.1
	c0,9.2,2.7,12.4,6.9,12.4c3.4,0,5.6-1.9,6.4-7.8l9.3,1.1c-1.2,9.2-7.1,13.5-15.9,13.5c-10.6,0-17.3-7.3-17.3-19.2v-0.1
	C94.2,26.1,100.7,18.6,111.5,18.6z"/>
<path class="st0" d="M166,48.6h-12.2l-2.2,7.7h-9.1l11.9-36.9h12.5l11.9,36.9h-10.5L166,48.6z M159.9,27.6l-4.1,14h8.2L159.9,27.6z"
	/>
<path class="st1" d="M82.4,13.8c15.9,0,28.9,13,28.9,28.9H96C96,35.1,89.9,29,82.4,29c-7.5,0-13.6,6.1-13.6,13.6H53.5
	C53.5,26.7,66.5,13.8,82.4,13.8z"/>
<polygon class="st0" points="8.4,29.3 13.4,46.9 27.2,46.9 32.2,29.1 25.3,28.7 21.1,44 16.8,28.2 "/>
<path class="st0" d="M94.7,32.5c0,0-1.6,7.1,0.9,13.9l10.1-0.8c0,0-1.5-2.7-0.7-12.5L94.7,32.5z"/>
<rect x="63.5" y="27" class="st0" width="10.1" height="18.3"/>
<polygon class="st0" points="161.2,31.9 163.7,40.7 173.6,40.2 170.5,30.7 "/>
<circle class="st1" cx="134.6" cy="52.8" r="15"/>
<polygon class="st0" points="142.5,56.3 151.6,56.3 153.8,48.6 146.8,42.9 "/>
<path class="st0" d="M218.5,50.3c-1.7,4-5.2,5.9-10,5.9c-8.7,0-15.2-6.5-15.2-19.2v-0.1c0-11.5,6.3-19.2,17.5-19.2
	c9.3,0,14.1,4.1,15.3,11.4l-9,1.1c-0.8-3.8-2.9-5.7-6.2-5.7c-4.6,0-7.2,3.3-7.2,12.4V37c0,9.1,2.4,12.4,7.3,12.4
	c3.5,0,6.1-2.5,6.1-7.2V42h-6.8v-6.9h16.3v20.2h-7.5L218.5,50.3z"/>
<path class="st0" d="M259.4,41.8h-4.5v13.5h-10.1V18.5h16.5c10,0,14.4,4.8,14.4,11.7c0,4.7-2.4,7.7-7.1,9.6l8.6,15.5h-10.9
	L259.4,41.8z M254.9,35.1h4.8c3.8,0,5.4-1.6,5.4-5c0-3.3-1.6-4.9-5.4-4.9h-4.8V35.1z"/>
<path class="st0" d="M315.3,47.7H303l-2.2,7.7h-9.1l11.9-36.9h12.5L328,55.4h-10.5L315.3,47.7z M309.1,26.7l-4.1,14h8.2L309.1,26.7z
	"/>
<path class="st0" d="M344.4,55.4V18.5h15c12,0,18.1,6.6,18.1,18.4V37c0,11.8-6.1,18.4-18.1,18.4H344.4z M366.9,36.9
	c0-8.3-2.3-11.5-9-11.5h-3.5v23.1h3.5c6.7,0,9-3.2,9-11.5V36.9z"/>
<circle class="st1" cx="352.5" cy="13.9" r="13.4"/>
<rect x="128.8" y="10.3" class="st2" width="310.2" height="52.3"/>
<path class="st1" d="M310.8,64.3c-30.5,20.6-51.2-2.7-57.2-8c-7.1-6.4-17.1-6.1-24.6,1.8c-12.7,13.3-30.9,18.4-47.3,12.7l0.6-40.1
	c15.7,10.8,30.3-1.2,30.3-1.2c16.1-12.5,28.9-22,43.3-12.7c15.5,10,25.3,31.2,55.1,7.4L310.8,64.3z"/>
<polygon class="st0" points="354.5,42.2 354.5,31.8 344.4,32.3 344.4,45.7 "/>
<path class="st0" d="M356.6,25.4v-6.9h2.8c0,0,4.8-0.2,8.8,1.6l-3.7,7.4c0,0-1.7-2.1-5.8-2.1H356.6z"/>
<path class="st0" d="M205.1,45.6c0,0,1.4,4,6,3.8l-2.6,6.7c0,0-9.8,0.8-13.6-9.5L205.1,45.6z"/>
<path class="st0" d="M193.8,31.4l10.5-0.5c0,0-0.6,1.9-0.5,6.9l-10.5,0.6C193.3,38.4,193.1,36.3,193.8,31.4z"/>
<polygon class="st0" points="305.1,40.7 303,47.7 317.2,47.7 315.1,40.7 "/>
<polygon class="st0" points="244.8,47.3 244.8,55.4 254.9,55.4 254.9,46.6 "/>
<path class="st0" d="M393.9,48.1l6.8-5c2.9,4.6,6.1,6.5,9.8,6.5c3.1,0,5.1-1.4,5.1-3.5c0-1.9-1.3-3.1-5-4l-4.2-0.9
	C399.5,39.6,396,36,396,30c0-6.3,5.1-11.6,15.1-11.6c6.5,0,12.1,2.7,15.2,7.1l-6.7,5c-2.9-3.7-5.5-5-8.4-5c-2.8,0-4.6,1.2-4.6,3.2
	c0,1.6,1.1,2.7,4,3.4l4.2,0.9c8.6,1.8,11.9,6.1,11.9,11.9c0,6.8-6,12.1-16,12.1C402.7,56.8,396.7,53.6,393.9,48.1z"/>
<path class="st0" d="M443.8,19.2h10.1v14.2h11.2V19.2h10.2V56h-10.2V41.5h-11.2V56h-10.1V19.2z"/>
<path class="st0" d="M489.3,37.7v-0.1c0-12,6.8-19.2,17.3-19.2c10.5,0,17.3,7.2,17.3,19.2v0.1c0,12-6.8,19.2-17.3,19.2
	C496.1,56.8,489.3,49.6,489.3,37.7z M513.4,37.7v-0.1c0-8.8-2.6-12.5-6.7-12.5c-4.2,0-6.8,3.6-6.8,12.5v0.1c0,8.8,2.6,12.5,6.8,12.5
	C510.8,50.1,513.4,46.5,513.4,37.7z"/>
<path class="st0" d="M561,31.6L556,56h-12.7l-7.3-36.9h10.5l4.3,27.4l5.6-27.4h10.5l5.6,27.3l4.3-27.3h9L578.6,56h-12.7L561,31.6z"
	/>
<path class="st1" d="M587.6,53c-20,0-36.2-16.3-36.2-36.2h19.1c0,9.4,7.7,17.1,17.1,17.1c9.4,0,17.1-7.7,17.1-17.1h19.1
	C623.8,36.7,607.6,53,587.6,53z"/>
<circle class="st1" cx="525.7" cy="33.7" r="16.9"/>
<path class="st0" d="M506.7,25.1v-6.7c0,0,7.2-0.6,12.5,5l-6.8,6.2C512.3,29.6,511,24.9,506.7,25.1z"/>
<polygon class="st0" points="561,31.6 565.9,56 578.6,56 580.8,45.1 573.5,40.6 572.5,46.5 569.5,31.6 "/>
<path class="st3" d="M414.5,55.5c3.5,4.4,9.7,4.7,14.3,1.5c4.3-2.9,3.8-7.9,8.7-9.5c2.3-0.8,8-0.3,10.8-0.7c2.5-0.3,4.8-1.6,6.8-3.3
	c7-5.7,8.1-15.9,2.4-22.9c0,0,0,0,0,0c0,0,0,0,0,0c-5.7-7-15.9-8.1-22.9-2.4c-2.1,1.7-3.8,3.7-4.6,6c-0.9,2.7-1.6,8.3-2.9,10.4
	c-2.6,4.4-7.4,3-11.1,6.5C411.9,45,411,51.1,414.5,55.5C414.5,55.5,414.5,55.5,414.5,55.5C414.5,55.5,414.5,55.5,414.5,55.5z"/>
<path class="st0" d="M410.5,49.6c0,0,2.3,0.1,4-1.2l5.5,6.4c0,0-2.1,1.6-8.4,2.1L410.5,49.6z"/>
<rect x="453.9" y="33.4" class="st0" width="11.2" height="8.1"/>
<path class="st0" d="M602.6,56v-7.2l9.2-7.7c6.5-5.5,7.7-7.6,7.7-10.8c0-2.5-1.4-4-3.5-4c-2.5,0-4.2,1.7-4.9,7.2l-9.2-1.1
	c1.2-7.6,5.6-12.3,14.3-12.3c9,0,13.4,4.7,13.4,10.6c0,5.7-2.8,9.4-12,15.3l-4.1,2.6h15.9V56H602.6z"/>
<path class="st0" d="M673.1,38.7c0,11.2-6.1,18.1-15.9,18.1c-9.7,0-15.8-6.8-15.8-18.1v-0.5c0-11.2,6.1-18.1,15.8-18.1
	c9.8,0,15.9,6.8,15.9,18.1V38.7z M663,38.7v-0.5c0-9-2.3-11.9-5.8-11.9c-3.5,0-5.8,2.9-5.8,11.9v0.5c0,9,2.3,11.9,5.8,11.9
	C660.8,50.6,663,47.7,663,38.7z"/>
<path class="st0" d="M689.6,49.6h7.1V29.5c-1.9,1-4.8,2-7.1,2.5v-6.8c3.4-1.1,6-2.3,9.2-4.3h7.6v28.7h6.8V56h-23.7V49.6z"/>
<path class="st1" d="M661.4,52.8c6.5,4.6,15.6,3,20.2-3.6c2.1-3.1,5.5-4.7,9-5c5-0.4,10.2,3.8,10.5,4c18.4,12.9,43.8,8.4,56.7-10
	c4.6-6.5,3-15.6-3.6-20.2c-6.6-4.6-15.6-3-20.2,3.6c-2.1,3-5.3,4.8-8.7,5c-7.3,0.3-25.3-12.8-41.2-10.7
	c-10.3,1.4-19.9,7.5-26.3,16.7C653.3,39.1,654.9,48.2,661.4,52.8z"/>
<path class="st0" d="M662.7,43.7c0,0-0.5,8.1-6.7,6.8l3.3,6.2c0,0,8.7-0.4,12.1-9.2L662.7,43.7z"/>
<polygon class="st0" points="698.8,20.9 706.4,20.9 706.4,26.6 "/>
<polygon class="st0" points="613.5,48.7 619.7,56 610.8,56 607.3,44.8 614.1,39.1 618.9,45.2 "/>
<path class="st0" d="M601.9,32.5l9.2,1.1c0,0,0.3-3.8,1.9-5.8l-4-6.1C609,21.6,603.1,23.7,601.9,32.5z"/>
<path class="st0" d="M730.1,56c0.8-10.7,4.1-20,12-28h-17.4v-7.1h26.5v7.4c-7.4,6.7-10,15.3-10.8,27.7H730.1z"/>
</svg>
