<?xml version="1.0" encoding="utf-8"?>
<!-- Generator: Adobe Illustrator 21.0.0, SVG Export Plug-In . SVG Version: 6.00 Build 0)  -->
<svg version="1.1" id="Layer_1" xmlns="http://www.w3.org/2000/svg" xmlns:xlink="http://www.w3.org/1999/xlink" x="0px" y="0px"
	 viewBox="0 0 792 612" style="enable-background:new 0 0 792 612;" xml:space="preserve">
<style type="text/css">
	.st0{fill:none;}
	.st1{fill:#FFFFFF;}
</style>
<g>
	<path class="st0" d="M257.5,336.1c-1-3.6-3.4-7.6-10.4-7.6c-6.6,0-9.1,2.9-9.1,5.9c0,1.9,0.6,3.5,2.5,4.8c1.2,0.8,3,1.6,5.6,2.1
		l10.4,2.2c1.4,0.3,2.8,0.7,4,1.1v-8.9L257.5,336.1z"/>
	<path class="st0" d="M531.6,364l5.3-20.7c-3,1.1-6,2-9.2,2.7L531.6,364z"/>
	<path class="st0" d="M242.7,117.4l12.8,36.5c1.5,4.4,2,8,2,8h0.5c0,0,0.4-3.6,2-8.2l0.5-1.4V133c0-0.4,0.2-0.7,0.5-0.9
		c0.3-0.2,0.7-0.3,1-0.2l5,1.7l5.7-16.2h5h1c-7.3-4-15.6-6.7-26.1-5.8v0.7l0-0.7c0,0,0,0,0,0c-7.2,0.6-14,2.6-20.2,5.8h3.6H242.7z"
		/>
	<path class="st0" d="M569.1,260.3c0.7-1.5,1.3-3.3,1.6-5.3c0.3-1.8,0.5-3.8,0.5-6.1c0-13.9-6.9-18.9-17.9-18.9h-5.9v6.4
		C556.6,242.3,564.1,250.5,569.1,260.3z"/>
	<path class="st0" d="M357.3,417.1C357.3,417.1,357.4,417.1,357.3,417.1c14.4,0,23.6,7.3,26,23.5c0.4,2.4,0.6,5.1,0.7,7.9
		c1.8-3.5,3-7.3,3.5-11.3c1-8.8-1.4-17.4-6.8-24.3c-5.5-6.9-13.3-11.3-22-12.4c-6.5-0.8-13,0.4-18.8,3.3v19.4
		C344.3,419.2,350.2,417.1,357.3,417.1z"/>
	<path class="st0" d="M367.6,452.3c0,0.2,0,0.3,0,0.5C367.6,452.6,367.6,452.4,367.6,452.3z"/>
	<path class="st0" d="M367.1,459c0,0,0,0.1,0,0.1C367.1,459.1,367.1,459.1,367.1,459z"/>
	<path class="st0" d="M553.3,268.4c2.2,0,4.2-0.2,6-0.6c4-0.9,7.1-2.9,9.2-6.5c-4.8-9.7-12.1-17.9-21.1-23.7v30.8H553.3z"/>
	<path class="st0" d="M332.9,434.3l-71.6-24.5c-0.5-0.2-0.8-0.6-0.8-1.1v-27.1c-3.7,1.2-8.1,1.9-13.5,1.9c-2.3,0-4.5-0.2-6.5-0.5
		c-3.8-0.6-7.2-1.7-10.1-3.2c-0.7,2.6-1.1,5.4-1.1,8.2c-0.1,10.8,1.9,21.4,5.5,31.4c3.3-1.5,7.3-2.4,11.9-2.4
		c14.1,0,22.2,7.7,22.2,18.3c0,1.6-0.1,3-0.3,4.4c-1,6-4,10.5-9.3,15.8c16.4,14.7,37.6,22.9,60.2,22.9c6.3,0,12.5-0.6,18.5-1.9
		c-4.9-5.4-7.5-14-7.5-26.1C330.5,444.2,331.4,438.9,332.9,434.3z"/>
	<path class="st0" d="M448.1,451.1c2.1-0.3,3.9-1.1,5.4-2.2v-0.4v-12.1l-10.9,6.8l-6.2-11l21.8-13.9H469v7.2
		c6.5-5.6,15.3-7.9,24.7-6c4.7,1,8,2.7,12,4.8c2.4,1.2,4.9,2.5,8,3.8c3.9,1.6,12.1,3.7,18.6,1.8v-11.6h7.1v-36.2h-19.2l-7.9-34.9
		c-11.6-0.3-21.8-2.4-31.6-4.5c-1.9-0.4-3.9-0.8-5.9-1.2c0.5,2.7,0.8,5.5,0.8,8.4c0,20.2-11.8,33.5-31.6,33.5
		c-19.8,0-31.4-13.3-31.4-33.5c0-2.5,0.2-4.9,0.5-7.2c-0.8,0.2-1.6,0.3-2.3,0.5c-3.6,0.8-7.2,1.6-11,2.3v120.7c0,0,0.1,0.1,0.2,0.1
		h25.3C428.6,459.1,436,452.8,448.1,451.1z"/>
	<path class="st0" d="M465.5,255l-0.3-0.8c-0.6,0.3-1.2,0.7-1.8,1h2.1L465.5,255z"/>
	<path class="st0" d="M367.6,449.1c0,0.5,0,0.9,0,1.4C367.6,450,367.6,449.6,367.6,449.1z"/>
	<path class="st0" d="M339.1,157.7c0.5,0.2,0.8,0.6,0.8,1.1v34.4c4.8,0.3,9.3,1.5,13.8,2.6c7,1.8,14.2,3.6,22.3,2.2
		c9.8-1.6,18.3-7,24-15c5.7-8.1,8-17.9,6.4-27.6c-1.6-9.8-7-18.3-15-24c-5.8-4.1-12.5-6.4-19.4-6.8v57h-16.3v-54.1
		c-3,1.3-6.1,2.9-9,4.4c-7.4,3.9-14.9,7.9-22.6,7.3c-12.5-0.9-21.7-6.4-30.2-12.3v15.5L339.1,157.7z"/>
	<path class="st0" d="M367.5,454c0,0.1,0,0.3,0,0.4C367.5,454.3,367.5,454.1,367.5,454z"/>
	<path class="st0" d="M367.4,455.9C367.4,455.9,367.4,456,367.4,455.9C367.4,456,367.4,455.9,367.4,455.9z"/>
	<path class="st0" d="M250.8,215.9c3.6,0.2,6.9,0.9,9.7,1.9v-36.3h-9.8l-11.3-32.4c-1.9-5.4-2.8-11-2.8-11h-0.5v43.3h-15.2v-56.2
		c-2.5,2.2-4.8,4.7-7,7.5c-10,12.9-14.2,29.9-11.4,46.6c2.7,16.1,11.5,30.2,24.8,39.7c1,0.7,1.9,1.3,2.9,2c5-3.4,11.2-5.2,18.2-5.2
		C249.4,215.8,250.1,215.9,250.8,215.9z"/>
	<path class="st0" d="M399.9,295.9h139.3c0.6,0,1.2,0.5,1.2,1.1v33.1l3.1-12.2h14l2.2,8.4c9.7-10.9,14.9-24.8,14.8-39.6
		c0-3.4-0.4-6.7-0.9-9.9c-4,2.2-8.8,3.6-14.3,4.2c-1.9,0.2-3.9,0.3-6,0.3h-22v-51c-5-1.4-10.3-2.2-15.8-2.2l-0.5,0
		c-13.3,0.1-24.6,8.4-35.5,16.4c-0.5,0.3-1,0.7-1.4,1l3.3,9.4l9.1,26.4h-16.5l-4.3-13.6h-23.1l-4.2,13.6h-15.8l7.6-21.9
		c-9-2.7-17-8.6-24.8-14.3c-9.2-6.8-18.7-13.8-29.9-15.5c0.8,2.2,1.2,4.6,1.2,7.2c0,1.2-0.1,2.4-0.3,3.5c-1,6.7-5.1,11.7-11.1,14.7
		v0.2l13.7,26.2H365l-11.4-21.9H345v21.9h-5.2v54.8c3.6,2.6,7.4,4.8,11.5,6.5h4.8v-24.7h16.3v29.3c0.6,0,1.3,0,1.9,0l0.5,0
		c8.9-0.1,16.6-1.1,23.9-2.5V297C398.7,296.4,399.2,295.9,399.9,295.9z"/>
	<path class="st0" d="M444,329.5c-5.5,0-10.1,2.7-12.5,8.9c3.8-0.5,7.9-0.9,12.2-1c4.4-0.1,8.5,0,12.5,0.3
		C453.7,332,449.3,329.5,444,329.5z"/>
	<path class="st0" d="M316.6,412.3c-6.4-0.8-12.1-4-16-9c-4.3-5.5-5.2-11.1-5.1-14.9c0-8.8-3.3-17.1-9.5-23.4
		c-3.4-3.4-7.4-6-11.8-7.7c0.4,1.6,0.6,3.4,0.6,5.2c0,7.7-3.7,15.1-13.2,18.7v27.5c0,0.1,0,0.1,0.1,0.2l71.6,24.5
		c1.4-3.7,3.3-6.7,5.6-9.2v-19.9c-1.6,0.9-3.1,1.9-4.6,3C329.3,411.3,323,413.1,316.6,412.3z"/>
	<path class="st0" d="M332.7,382.1h-16.3v-64.2h5.8c-5-8.8-7.7-18.8-7.8-29.2c-0.1-15,5.3-28.8,14.4-39.4v-32.2h10.2v-23.1
		c-2.1-0.1-4.3,0-6.6,0.3c-12.3,1.8-20.4,9.5-28.9,17.6c-8.1,7.8-16.6,15.7-29,18.2c0.7,1.5,1.3,3.1,1.7,4.8l-14.6,2.4v8.2h14.9
		v13.1v22.5h-12.2l-1.4-7h-0.4c-0.3,0.4-0.6,0.8-0.9,1.2v43.6c6.7,3,10.8,8.4,12.1,14.9l-12.1,1.5v9.3c6.7,2.4,10.6,6.2,12.2,11.2
		c4.8,1.7,9.2,4.4,12.8,8.2c6.4,6.5,9.9,15,9.8,24.1c0,3.6,0.8,9.1,4.9,14.3c3.8,4.8,9.2,7.9,15.4,8.6c6.1,0.7,12.1-1,17-4.7
		c1.6-1.3,3.4-2.4,5.2-3.4v-47.3h-6.2V382.1z"/>
	<path class="st0" d="M339.9,342.7h4.6h4.4c-3.1-1.5-6.1-3.2-9-5.3V342.7z"/>
	<path class="st0" d="M367.3,457.5c0,0,0,0.1,0,0.1C367.3,457.6,367.3,457.6,367.3,457.5z"/>
	<path class="st0" d="M332.7,331.5v11.2h6.2v-6C336.7,335.1,334.7,333.4,332.7,331.5z"/>
	<path class="st0" d="M443.7,338.3c-4.5,0.1-8.6,0.5-12.6,1.1c-1,2.8-1.5,6.3-1.5,10.6c0,14.5,6.2,20.6,14.4,20.6
		c8.2,0,14.4-6,14.4-20.6c0-4.6-0.6-8.3-1.7-11.2C452.5,338.4,448.2,338.2,443.7,338.3z"/>
	<path class="st0" d="M560.8,418.3c-0.4,0-0.7,0-1.1,0c-0.3,0-0.5,0-0.8,0h0.6H560.8z"/>
	<path class="st0" d="M261.8,132.8C261.8,132.8,261.7,132.8,261.8,132.8c-0.1,0-0.1,0-0.1,0c0,0-0.1,0.1-0.1,0.1v16.4l5.2-14.9
		L261.8,132.8z"/>
	<path class="st0" d="M240.6,369.4c1.9,1.1,4.3,1.7,6.9,1.7c7,0,10.2-2.9,10.2-7c0-2.9-1.5-5.3-7.2-6.6c-5.1,2-9.5,5.2-13,9.3
		C238.3,367.8,239.3,368.7,240.6,369.4z"/>
	<path class="st0" d="M548.3,155.4h5.6c-0.2-4-0.9-7.8-2-11.4l-2.5,8L548.3,155.4z"/>
	<path class="st0" d="M513.2,429c-3.1-1.3-5.6-2.6-8-3.8c-3.9-2-7.2-3.7-11.8-4.7c-2.1-0.5-4.2-0.7-6.3-0.7c-6.9,0-13.3,2.5-18.1,7
		v21.6v17.9h70.2c0.1,0,0.2-0.1,0.2-0.1v-32.9h-7.1v-2.5C525.5,432.8,517.1,430.7,513.2,429z"/>
	<path class="st0" d="M338.8,158.7l-45-15.1v38h-15.9v-43.3l0,0h-0.5c0,0-0.9,5.6-2.8,11.1l-11.3,32.3h-1.6v36.7
		c5.7,2.4,9.8,6.3,12.4,11.1c12.3-2.4,20.7-10.3,28.8-18c8.6-8.2,16.8-16,29.5-17.9c2.3-0.3,4.5-0.4,6.7-0.3v-34.3
		C338.9,158.7,338.8,158.7,338.8,158.7z"/>
	<path class="st0" d="M563.5,155.4l-1.1-3.4l-3-9.6c-1.7-5.5-3-10.8-3-10.8h-1c0,0-1.3,5.3-3,10.8c1.5,4.1,2.3,8.5,2.5,13H563.5z"/>
	<path class="st0" d="M250.8,228.3c-0.7-0.1-1.5-0.2-2.3-0.2c-0.6,0-1.2,0-1.8,0.1c2.8,0.8,5.7,1.3,8.6,1.7
		C254.1,229.1,252.6,228.6,250.8,228.3z"/>
	<path class="st0" d="M581.3,433.4c-3.2,3.2-5.9,6.7-8.2,10.3c-1,1.6-1.9,3.2-2.8,4.8h0c-2.4,4.5-4.4,9.3-5.9,14.5
		c-1.7,5.5-2.8,12.1-3.4,19.6h-17.8c1.4-10.5,3.6-19.3,6.6-26.4c1.1-2.5,2.4-5.1,3.9-7.7h0c2.7-4.8,6.2-9.8,10.4-15.1h-23.6v32.9
		c0,0.6-0.5,1.1-1.2,1.1H469v15.1h-15.5v-15.1h-27.7c-1.3,2.9-1.9,6-1.9,9c0,13.4,10.9,24.4,24.4,24.4c9.5,0,15.4-4.6,21.6-9.4
		c8.1-6.3,17.2-13.4,36.7-12.8c11.1,0.4,21.7,4.8,31.1,8.6c8,3.3,15.6,6.5,22.1,6.5c20.8,0,37.7-16.9,37.7-37.7
		c0-11.4-5.1-21.6-13.1-28.5v2.9C583.3,431.4,582.3,432.4,581.3,433.4z"/>
	<path class="st0" d="M247.8,257v-11.3h12.7v-8.1l-0.1,0c-0.8-2.7-2-4.9-3.7-6.6c-4.1-0.4-8.2-1.2-12.1-2.4
		c-6.2,1.8-10.9,8-10.9,20.4c0,15,6.9,21.2,14.7,21.2c6.4,0,10.4-3.2,12.2-7.4V257H247.8z"/>
	<path class="st0" d="M413.2,341.7c2.9-15.4,13.9-25.2,30.9-25.2c16.5,0,27.3,9.1,30.5,23.9c2.1,0.4,4.1,0.8,6.2,1.3
		c9.8,2,19.8,4.1,31.2,4.5l-6.4-28.3h16.2l5.7,27.1c3.3-0.7,6.6-1.7,9.7-2.9l2.1-8.1v-37c0,0-0.1-0.1-0.2-0.1H399.9
		c-0.1,0-0.2,0.1-0.2,0.1v47.7c3.7-0.7,7.2-1.5,10.7-2.3C411.4,342.1,412.3,341.9,413.2,341.7z"/>
	<path class="st0" d="M323.3,317.9h9.4v12.2c0.1,0.1,0.2,0.2,0.2,0.2c1.9,1.8,3.9,3.5,5.9,5.1v-54.1h-10.2v-30.5
		c-8.4,10.3-13.5,23.5-13.4,37.8C315.4,299.2,318.2,309.1,323.3,317.9z"/>
	<path class="st0" d="M469.6,136.7c-1.9-4.6-5.7-7.8-11.7-7.8c-0.7,0-1.3,0.1-1.9,0.1c-7.1,0.9-12.4,7.1-12.4,20.3
		c0,14.9,6.5,20.9,14.3,20.9c3.2,0,5.8-0.9,7.9-2.5c-0.8-3.3-1.2-6.7-1.2-10.3C464.5,149.9,466.4,142.9,469.6,136.7z"/>
	<path class="st0" d="M253.8,437c0-5-3.1-7.8-7.7-7.8c-2.4,0-4.4,0.6-5.9,2c2.4,4.5,5.3,8.9,8.5,13c0.4,0.6,0.9,1.1,1.3,1.7
		c1.7-2.2,2.9-4.1,3.4-6C253.7,438.9,253.8,437.9,253.8,437z"/>
	<path class="st0" d="M461.5,242.2c-0.5-1.6-0.9-3.1-1.3-4.5c-1-3.6-1.6-6.3-1.6-6.3h-1c0,0-1.3,5.3-3,10.8l-4.1,13h10.9
		c1.2-0.6,2.4-1.3,3.6-2L461.5,242.2z"/>
	<path class="st0" d="M466.6,166.9c2-1.9,3.3-4.5,4.1-7.4l16.5,2.7c-2.2,8.2-7,14.8-15.1,18.2c7.8,12.7,21.8,21.2,37.7,21.2
		c20.7,0,38.2-14.3,42.9-33.6h-8.4l-0.2,0.7l-4,12.9h-15.8l4.5-12.9l5.8-16.7l8.3-24c-8.1-9.1-19.9-14.9-33-14.9
		c-11.3,0-21.6,4.3-29.4,11.3c3.1,3.2,5.1,7.2,5.8,11.7l-16,2.4c0-0.2-0.1-0.3-0.2-0.5c-2.9,5.9-4.5,12.4-4.5,19.4
		C465.5,160.6,465.9,163.8,466.6,166.9z"/>
	<path class="st0" d="M453.5,452.7V450c-1.5,1-3.2,1.7-5.3,2c-11.4,1.6-18.6,7.5-22,14.4h27.2V452.7z"/>
	<path class="st0" d="M361.4,430.1c0,0,0.1,0,0.1,0.1C361.5,430.1,361.4,430.1,361.4,430.1z"/>
	<path class="st0" d="M353.8,471.3c0.2,0.1,0.4,0.1,0.6,0.2l0,0C354.2,471.5,354,471.4,353.8,471.3z"/>
	<path class="st0" d="M362.8,431.1c0,0,0.1,0.1,0.1,0.1C362.9,431.2,362.8,431.1,362.8,431.1z"/>
	<path class="st0" d="M358.1,429.1c0.1,0,0.1,0,0.2,0C358.2,429.2,358.2,429.2,358.1,429.1z"/>
	<path class="st0" d="M359.8,429.4c0.1,0,0.1,0,0.2,0C360,429.5,359.9,429.5,359.8,429.4z"/>
	<path class="st0" d="M365.9,436.5c0,0,0,0.1,0,0.1C366,436.5,366,436.5,365.9,436.5z"/>
	<path class="st0" d="M365.1,434.3c0,0,0,0.1,0.1,0.1C365.1,434.3,365.1,434.3,365.1,434.3z"/>
	<path class="st0" d="M364,432.5c0,0,0,0.1,0.1,0.1C364.1,432.5,364.1,432.5,364,432.5z"/>
	<path class="st0" d="M358.2,471.9c0,0-0.1,0-0.2,0C358.1,471.9,358.1,471.9,358.2,471.9z"/>
	<path class="st0" d="M366.6,439.1c0,0,0,0.1,0,0.1C366.7,439.2,366.6,439.1,366.6,439.1z"/>
	<path class="st0" d="M356.2,471.9c0.4,0,0.8,0.1,1.1,0.1l0,0C356.9,471.9,356.5,471.9,356.2,471.9L356.2,471.9z"/>
	<path class="st0" d="M351.1,469.3c0.4,0.5,0.8,0.9,1.3,1.2C351.9,470.2,351.5,469.8,351.1,469.3z"/>
	<path class="st0" d="M353.8,471.3c-0.5-0.2-1-0.5-1.5-0.8C352.8,470.8,353.3,471.1,353.8,471.3z"/>
	<path class="st0" d="M347.8,461.5c-0.1-0.7-0.2-1.3-0.3-2.1C347.6,460.2,347.7,460.9,347.8,461.5z"/>
	<g>
		<path d="M252.8,111.6C252.8,111.6,252.8,111.6,252.8,111.6l0,0.7L252.8,111.6c10.5-0.9,18.8,1.8,26.1,5.8h2.1
			c-7.9-4.5-16.7-7.8-28.3-6.8c-8,0.7-15.6,3-22.3,6.8h2.2C238.7,114.2,245.5,112.3,252.8,111.6z"/>
		<path d="M244.6,228.7c3.9,1.2,8,2,12.1,2.4c-0.4-0.4-0.9-0.8-1.4-1.2c-2.9-0.4-5.8-0.9-8.6-1.7c-5.8-1.6-11.3-4-16.4-7.3
			c-1-0.6-2-1.3-2.9-2c-13.3-9.5-22.1-23.6-24.8-39.7c-2.8-16.7,1.3-33.6,11.4-46.6c2.1-2.7,4.5-5.2,7-7.5V124
			c-2.8,2.4-5.4,5.2-7.8,8.2c-10.2,13.2-14.4,30.4-11.6,47.4c2.8,16.4,11.7,30.7,25.2,40.3c0.9,0.6,1.7,1.2,2.6,1.8
			C234.2,224.7,239.3,227.1,244.6,228.7z"/>
		<path d="M509.8,113.1c13.1,0,24.9,5.8,33,14.9l0.4-1.1c-8.3-9.1-20.2-14.8-33.4-14.8c-11.6,0-22.1,4.4-30.2,11.6
			c0.2,0.2,0.5,0.5,0.7,0.7C488.2,117.4,498.5,113.1,509.8,113.1z"/>
		<path d="M471.1,180.8c7.9,13.1,22.3,21.8,38.7,21.8c21.3,0,39.2-14.8,44-34.6c0.8-3.4,1.3-7,1.3-10.6c0-0.7,0-1.3-0.1-2
			c-0.2-4.6-1.1-8.9-2.5-13c0,0,0,0,0,0l-0.5,1.6c1.2,3.6,1.9,7.5,2,11.4c0,0.7,0.1,1.3,0.1,2c0,3.7-0.5,7.2-1.3,10.6
			c-4.8,19.3-22.2,33.6-42.9,33.6c-15.9,0-29.9-8.5-37.7-21.2c-2.5-4.1-4.4-8.7-5.5-13.5c-0.7-3.1-1-6.3-1-9.5
			c0-7,1.6-13.5,4.5-19.4c-0.1-0.4-0.3-0.9-0.5-1.3c-3.2,6.2-5,13.2-5,20.7c0,3.5,0.4,7,1.2,10.3
			C466.8,172.3,468.7,176.8,471.1,180.8z"/>
		<path d="M260.6,381.6v27.1c0,0.5,0.3,1,0.8,1.1l71.6,24.5c0-0.1,0.1-0.2,0.1-0.3c0.1-0.2,0.2-0.4,0.3-0.7l-71.6-24.5
			c-0.1,0-0.1-0.1-0.1-0.2v-27.5C261.2,381.4,260.9,381.5,260.6,381.6z"/>
		<path d="M261.6,181.6v-32.1V133c0-0.1,0-0.1,0.1-0.1c0,0,0.1,0,0.1,0c0,0,0,0,0,0l5,1.7l11,3.7l0,0v0v-1l-10.7-3.6l-5-1.7
			c-0.4-0.1-0.7-0.1-1,0.2c-0.3,0.2-0.5,0.6-0.5,0.9v19.3v29.3v36.3c0.3,0.1,0.7,0.3,1,0.4V181.6z"/>
		<path d="M338.9,158.8v34.3c-2.2-0.1-4.4,0-6.7,0.3c-12.6,1.9-20.8,9.7-29.5,17.9c-8.1,7.7-16.5,15.7-28.8,18
			c0.2,0.3,0.3,0.6,0.5,0.9c12.4-2.5,20.9-10.5,29-18.2c8.5-8.1,16.6-15.8,28.9-17.6c2.2-0.3,4.4-0.4,6.6-0.3v23.1h1v-23
			c4.7,0.3,9.2,1.5,13.5,2.6c7.1,1.8,14.4,3.7,22.7,2.3c10-1.7,18.8-7.2,24.7-15.4c5.9-8.3,8.2-18.4,6.5-28.4
			c-1.7-10-7.2-18.8-15.4-24.7c-6-4.2-12.8-6.6-20-7c-2.8-0.1-5.6,0-8.4,0.5c-2.6,0.4-5.3,1.3-7.9,2.4c-3.2,1.3-6.4,3-9.5,4.6
			c-7.2,3.8-14.7,7.7-22.1,7.2c-12.5-0.9-21.7-6.6-30.3-12.5v1.2c8.6,5.8,17.7,11.3,30.2,12.3c7.7,0.6,15.3-3.4,22.6-7.3
			c3-1.6,6-3.1,9-4.4c2.7-1.1,5.4-2.1,8.1-2.5c2.8-0.5,5.5-0.6,8.2-0.5c6.9,0.4,13.6,2.7,19.4,6.8c8.1,5.7,13.4,14.3,15,24
			c1.6,9.8-0.6,19.6-6.4,27.6c-5.7,8.1-14.3,13.4-24,15c-8.1,1.4-15.3-0.5-22.3-2.2c-4.4-1.1-9-2.3-13.8-2.6v-34.4
			c0-0.5-0.3-1-0.8-1.1l-45.4-15.2v1.1l45,15.1C338.8,158.7,338.9,158.7,338.9,158.8z"/>
		<path d="M261.6,257h-1v5.8v13.9v42v17v8.9c0.3,0.1,0.7,0.2,1,0.3v-9.3v-16.4v-43.6v-16.7h0C261.6,258.5,261.6,257,261.6,257z"/>
		<polygon points="261.6,237.5 260.6,237.7 260.6,245.7 261.6,245.7 		"/>
		<path d="M469,467.4h70.2c0.6,0,1.2-0.5,1.2-1.1v-32.9h-1v32.9c0,0-0.1,0.1-0.2,0.1H469V467.4z"/>
		<polygon points="540.4,379.4 539.7,382.1 539.4,382.1 539.4,418.3 540.4,418.3 		"/>
		<path d="M537.3,342.1c-3.1,1.2-6.4,2.2-9.7,2.9l0.2,1c3.1-0.7,6.2-1.6,9.2-2.7L537.3,342.1z"/>
		<path d="M512.2,347.2l-0.2-1c-11.4-0.3-21.4-2.4-31.2-4.5c-2.1-0.4-4.1-0.9-6.2-1.3c0.1,0.4,0.1,0.7,0.2,1.1
			c2,0.4,3.9,0.8,5.9,1.2C490.5,344.8,500.6,346.9,512.2,347.2z"/>
		<path d="M379.3,229.6c11.2,1.7,20.7,8.7,29.9,15.5c7.8,5.8,15.8,11.7,24.8,14.3c3,0.9,6,1.4,9.2,1.5c0.2,0,0.4,0,0.5,0
			c7.1,0,13.6-2.3,19.7-5.7c0.6-0.3,1.2-0.7,1.8-1l-0.3-1c-1.2,0.7-2.4,1.4-3.6,2c-5.6,2.8-11.4,4.7-17.6,4.7c-0.2,0-0.3,0-0.5,0
			c-3.1-0.1-6.1-0.6-8.9-1.4c-8.9-2.6-16.8-8.5-24.6-14.2c-9.5-7-19.2-14.2-30.9-15.8C379,228.9,379.1,229.2,379.3,229.6z"/>
		<path d="M443.7,337.3c-4.3,0.1-8.3,0.5-12.2,1c-0.1,0.3-0.3,0.7-0.4,1.1c4-0.5,8.1-0.9,12.6-1.1c4.5-0.2,8.8,0,12.9,0.4
			c-0.1-0.4-0.3-0.7-0.4-1C452.2,337.3,448,337.2,443.7,337.3z"/>
		<path d="M559.7,326.3l0.3,1.2c10.1-11.2,15.6-25.5,15.5-40.7c0-3.6-0.4-7-1-10.4c-0.3,0.2-0.6,0.3-0.9,0.5
			c0.6,3.2,0.9,6.5,0.9,9.9C574.6,301.5,569.4,315.4,559.7,326.3z"/>
		<path d="M531.2,229.3c-5-1.4-10.3-2.1-15.8-2.1l-0.5,0c-13.6,0.1-25,8.5-36.1,16.6c-0.4,0.3-0.8,0.6-1.2,0.9l0.3,1
			c0.5-0.3,1-0.7,1.4-1c10.9-8,22.2-16.3,35.5-16.4l0.5,0c5.5,0,10.8,0.8,15.8,2.2c5.8,1.6,11.2,4.1,16.2,7.3
			c9,5.8,16.4,14,21.1,23.7c0.2-0.3,0.4-0.7,0.6-1.1c-4.9-9.8-12.5-18-21.7-23.9C542.4,233.3,537,230.9,531.2,229.3z"/>
		<path d="M338.9,241.1c0.3-0.2,0.7-0.5,1-0.7c1.7-1.2,3.4-2.3,5.2-3.3c3-1.7,6.1-3.2,9.3-4.3c2-0.7,4.1-1.3,6.2-1.9
			c-0.4-0.3-0.9-0.5-1.3-0.7c-1.7,0.4-3.3,0.9-4.9,1.5c-3.3,1.2-6.4,2.6-9.3,4.2c-1.8,1-3.5,2.1-5.2,3.3c-0.3,0.2-0.7,0.5-1,0.7
			c-3.7,2.8-7.1,5.9-10.2,9.5c-9.1,10.6-14.5,24.4-14.4,39.4c0.1,10.4,2.8,20.4,7.8,29.2h1.2c-5.1-8.8-7.9-18.8-8-29.2
			c-0.1-14.3,4.9-27.5,13.4-37.8C331.7,247.2,335.1,244,338.9,241.1z"/>
		<path d="M319.6,478.5c-22.6,0-43.8-8.2-60.2-22.9c-3.3-3-6.5-6.3-9.4-9.8c-0.4-0.5-0.9-1.1-1.3-1.7c-3.2-4.1-6-8.4-8.5-13
			c-0.3,0.2-0.5,0.5-0.7,0.8c2.4,4.5,5.2,8.8,8.4,12.8c0.5,0.6,1,1.2,1.5,1.8c2.9,3.5,6,6.7,9.3,9.7c16.6,14.9,38,23.2,60.9,23.2
			c6.6,0,13-0.7,19.3-2c-0.3-0.3-0.6-0.6-0.8-0.8C332,477.9,325.9,478.5,319.6,478.5z"/>
		<path d="M358.8,399.6c-6.6-0.8-13.1,0.3-18.9,3.2v-46.8h-1v47.3c-1.8,1-3.5,2.1-5.2,3.4c-4.8,3.8-10.8,5.5-17,4.7
			c-6.1-0.7-11.6-3.8-15.4-8.6c-4.1-5.2-4.9-10.7-4.9-14.3c0.1-9.1-3.4-17.7-9.8-24.1c-3.7-3.7-8.1-6.5-12.8-8.2
			c-3.5-1.2-7.3-1.9-11.2-1.9h-0.2c-0.3,0-0.6,0-0.9,0c-0.3,0-0.7,0-1,0c-4.2,0.2-8.2,1.2-11.8,2.8c-4.6,2-8.7,5.1-11.9,8.8
			c-3.3,3.8-5.8,8.4-7.2,13.4c-0.7,2.8-1.2,5.7-1.2,8.7c-0.1,10.9,1.9,21.7,5.6,31.9c0.3-0.1,0.6-0.3,0.9-0.4
			c-3.7-10-5.6-20.7-5.5-31.4c0-2.8,0.4-5.6,1.1-8.2c1.3-4.9,3.7-9.4,6.9-13.1c3.5-4.1,8-7.3,13-9.3c3.2-1.2,6.6-2,10.1-2.2
			c0.3,0,0.7,0,1,0c0.3,0,0.6,0,0.9,0h0.2c4,0,7.9,0.8,11.5,2.1c4.4,1.7,8.4,4.2,11.8,7.7c6.2,6.3,9.6,14.6,9.5,23.4
			c0,3.8,0.9,9.5,5.1,14.9c4,5,9.6,8.2,16,9c6.4,0.8,12.7-1,17.7-5c1.4-1.1,3-2.1,4.6-3v19.9c0.3-0.3,0.7-0.7,1-1v-19.4
			c5.7-2.9,12.2-4.1,18.8-3.3c8.8,1,16.6,5.4,22,12.4c5.5,6.9,7.9,15.6,6.8,24.3c-0.5,4-1.7,7.8-3.5,11.3c-2.1,4.1-5.1,7.8-8.9,10.8
			c-3.1,2.4-6.3,4.7-9.7,6.6c0,0,0,0,0,0c-2.3,1.4-4.6,2.6-7,3.7c-1.3,0.6-2.7,1.2-4,1.8c0.3,0.1,0.6,0.2,0.8,0.2
			c0.3,0.1,0.6,0.1,0.9,0.1h0c1.5-0.7,3-1.4,4.4-2.1c1.4-0.7,2.7-1.4,4.1-2.2c0,0,0,0,0,0c3.8-2.2,7.5-4.7,11.1-7.4
			c3.4-2.7,6.2-5.9,8.3-9.5c2.3-4,3.9-8.4,4.4-13.2c1.1-9-1.4-17.9-7-25.1C375.8,405.2,367.8,400.6,358.8,399.6z"/>
		<path d="M469,426.9c4.9-4.5,11.2-7,18.1-7c2.1,0,4.2,0.2,6.3,0.7c4.5,1,7.9,2.7,11.8,4.7c2.4,1.2,4.9,2.5,8,3.8
			c3.9,1.6,12.2,3.7,19,1.9v-1c-6.5,1.9-14.8-0.2-18.6-1.8c-3.1-1.3-5.5-2.5-8-3.8c-3.9-2-7.3-3.8-12-4.8c-9.4-2-18.2,0.4-24.7,6
			V426.9z"/>
		<path d="M584.4,426.2c-4.5-3.8-9.9-6.5-15.8-7.9c-2.8-0.7-5.8-1-8.8-1c-2.2,0-4.3,0.4-6.3,1h4.8h0.6c0.3,0,0.5,0,0.8,0
			c0.4,0,0.8,0,1.1,0c9,0.3,17.2,3.7,23.5,9.2c8,6.9,13.1,17.1,13.1,28.5c0,20.8-16.9,37.7-37.7,37.7c-6.5,0-14.1-3.1-22.1-6.5
			c-9.3-3.9-19.9-8.3-31.1-8.6c-19.5-0.7-28.6,6.5-36.7,12.8c-6.2,4.8-12,9.4-21.6,9.4c-13.4,0-24.4-10.9-24.4-24.4
			c0-3,0.6-6.1,1.9-9h27.7v-1h-27.2c3.4-6.8,10.5-12.7,22-14.4c2-0.3,3.8-1,5.3-2v-1.2c-1.5,1.1-3.3,1.9-5.4,2.2
			c-12.1,1.7-19.5,8-22.9,15.4h-25.3c-0.1,0-0.2-0.1-0.2-0.1V345.7c3.8-0.7,7.4-1.5,11-2.3c0.8-0.2,1.6-0.3,2.3-0.5
			c0.1-0.4,0.1-0.7,0.2-1.1c-0.9,0.2-1.8,0.4-2.8,0.6c-3.5,0.8-7.1,1.6-10.7,2.3V297c0,0,0.1-0.1,0.2-0.1h139.3
			c0.1,0,0.2,0.1,0.2,0.1v37l1-3.9V297c0-0.6-0.5-1.1-1.2-1.1H399.9c-0.6,0-1.2,0.5-1.2,1.1v47.9c-7.2,1.4-15,2.4-23.9,2.5l-0.5,0
			c-0.6,0-1.3,0-1.9,0c-7.4-0.2-14.5-1.8-21.1-4.6c-4-1.7-7.9-3.9-11.5-6.5v-54.8h-1v54.1c-2.1-1.6-4-3.3-5.9-5.1
			c-0.1-0.1-0.2-0.2-0.2-0.2v1.4c2,1.9,4,3.6,6.2,5.2v6h1v-5.3c2.9,2,5.9,3.8,9,5.3c7.3,3.4,15.3,5.4,23.6,5.6c0.6,0,1.3,0,1.9,0
			l0.5,0c8.9-0.1,16.6-1.1,23.9-2.5v120.5c0,0.6,0.5,1.1,1.2,1.1h24.9c-1.2,2.9-1.8,6-1.8,9c0,14,11.4,25.4,25.4,25.4
			c9.9,0,15.9-4.7,22.2-9.6c7.9-6.2,16.9-13.2,36-12.5c11,0.4,21.5,4.7,30.7,8.6c8.1,3.4,15.8,6.5,22.5,6.5
			c21.4,0,38.7-17.4,38.7-38.7C598.5,444,593,433.3,584.4,426.2z"/>
	</g>
	<g>
		<path class="st1" d="M559.5,418.3h-0.6h-0.6h-4.8h-13.1h-1h-7.1v11.6v1v2.5h7.1h1H564c-4.2,5.2-7.7,10.3-10.4,15.1h0
			c-1.5,2.6-2.8,5.2-3.9,7.7c-3,7.1-5.2,15.9-6.6,26.4h17.8c0.6-7.5,1.7-14.1,3.4-19.6c1.6-5.2,3.6-10,5.9-14.5h0
			c0.9-1.6,1.8-3.3,2.8-4.8c2.3-3.6,5.1-7,8.2-10.3c1-1,2-2,3.1-3v-2.9c-6.4-5.5-14.6-8.9-23.5-9.2H559.5z"/>
		<path class="st1" d="M584.4,426.2v-7.9h-15.8C574.5,419.7,579.9,422.4,584.4,426.2z"/>
		<path class="st1" d="M375.7,460.1c-3.5,2.8-7.2,5.3-11.1,7.4c0,0,0,0,0,0c-0.5,0.9-1.1,1.6-1.7,2.2c-1.3,1.3-3,2-4.8,2.1
			c0,0-0.1,0-0.2,0c-0.2,0-0.5,0-0.7,0c-0.4,0-0.8,0-1.1-0.1c-0.6-0.1-1.2-0.2-1.7-0.4c-0.2-0.1-0.4-0.1-0.6-0.2
			c-0.5-0.2-1-0.5-1.5-0.8s-0.9-0.7-1.3-1.2c-1.5-1.7-2.5-4.2-3.2-7.8c-0.1-0.7-0.2-1.3-0.3-2.1c-0.3-2.5-0.5-5.5-0.5-8.9
			c0-7.8,0.9-13.1,2.5-16.5c1.7-3.5,4.4-5,7.7-5h0c0.3,0,0.5,0,0.8,0c0.1,0,0.1,0,0.2,0c0.5,0.1,1,0.1,1.5,0.3c0.1,0,0.1,0,0.2,0
			c0.5,0.2,1,0.3,1.4,0.6c0,0,0.1,0,0.1,0.1c0.4,0.3,0.9,0.6,1.3,0.9c0,0,0.1,0.1,0.1,0.1c0.4,0.4,0.8,0.8,1.1,1.3
			c0,0,0,0.1,0.1,0.1c0.4,0.5,0.7,1.1,1,1.7c0,0,0,0.1,0.1,0.1c0.3,0.6,0.6,1.3,0.8,2.1c0,0,0,0.1,0,0.1c0.2,0.8,0.5,1.6,0.7,2.5
			c0,0,0,0.1,0,0.1c0.1,0.5,0.2,0.9,0.3,1.4c0.4,2.4,0.6,5.2,0.7,8.4c0,0.5,0,0.9,0,1.4c0,0.6,0,1.2,0,1.7c0,0.2,0,0.3,0,0.5
			c0,0.4,0,0.8,0,1.2c0,0.1,0,0.3,0,0.4c0,0.5-0.1,1-0.1,1.5c0,0,0,0,0,0c0,0.5-0.1,1.1-0.1,1.6c0,0,0,0.1,0,0.1
			c0,0.5-0.1,0.9-0.2,1.4c0,0,0,0.1,0,0.1c-0.4,2.8-0.9,5-1.7,6.8c0,0,0,0,0,0c3.3-2,6.6-4.2,9.7-6.6c3.8-3,6.8-6.6,8.9-10.8
			c-0.1-2.8-0.3-5.5-0.7-7.9c-2.5-16.2-11.6-23.5-26-23.5c0,0-0.1,0-0.1,0c-7.1,0-13,2.1-17.4,6.1c-0.3,0.3-0.7,0.6-1,1
			c-2.3,2.4-4.2,5.5-5.6,9.2c-0.1,0.2-0.2,0.4-0.3,0.7c0,0.1-0.1,0.2-0.1,0.3c-1.5,4.5-2.4,9.9-2.4,16.2c0,12.1,2.6,20.7,7.5,26.1
			c0.3,0.3,0.5,0.6,0.8,0.8c4.5,4.4,10.6,6.4,18.3,6.4c11.1,0,19.1-4.7,23.4-14.2c2.3-5,3.5-11.4,3.5-19.2
			C381.9,454.2,379.1,457.4,375.7,460.1z"/>
		<path class="st1" d="M261.6,319.2v16.4l12.1-1.5C272.4,327.5,268.2,322.2,261.6,319.2z"/>
		<path class="st1" d="M356.2,342.7h-4.8c6.6,2.8,13.8,4.4,21.1,4.6v-29.3h-16.3V342.7z"/>
		<path class="st1" d="M531.2,230.3v51h22c2.1,0,4.1-0.1,6-0.3c5.4-0.6,10.2-2,14.3-4.2c0.3-0.2,0.6-0.3,0.9-0.5
			c7.3-4.3,12-11.4,13.3-21.3c0.2-1.9,0.4-3.8,0.4-5.8c0-23.5-16-32-34.8-32h-22v12.1c5.8,1.6,11.2,4,16.2,7.1V230h5.9
			c11.1,0,17.9,5,17.9,18.9c0,2.3-0.2,4.3-0.5,6.1c-0.4,2-0.9,3.8-1.6,5.3c-0.2,0.4-0.4,0.7-0.6,1.1c-2.1,3.6-5.3,5.6-9.2,6.5
			c-1.9,0.4-3.9,0.6-6,0.6h-5.9v-30.8C542.5,234.4,537,231.9,531.2,230.3z"/>
		<path class="st1" d="M245.1,282.7c7.6,0,12.1-2.2,15.5-6v-13.9c-1.7,4.1-5.7,7.4-12.2,7.4c-7.8,0-14.7-6.2-14.7-21.2
			c0-12.4,4.7-18.6,10.9-20.4c-5.3-1.6-10.4-4-15.2-7.1c-7.8,5.7-12.6,15.5-12.6,28.4C216.9,271.1,228.5,282.7,245.1,282.7z"/>
		<path class="st1" d="M457.9,183c5.1,0,9.5-0.8,13.2-2.2c-2.4-4-4.3-8.4-5.4-13.2c-2,1.6-4.6,2.5-7.9,2.5c-7.7,0-14.3-6-14.3-20.9
			c0-13.2,5.2-19.4,12.4-20.3c0.6-0.1,1.3-0.1,1.9-0.1c6,0,9.8,3.2,11.7,7.8c0.2,0.4,0.3,0.9,0.5,1.3c0.1,0.2,0.1,0.3,0.2,0.5
			l16-2.4c-0.8-4.5-2.8-8.5-5.8-11.7c-0.2-0.2-0.5-0.5-0.7-0.7c-4.9-4.7-12.3-7.7-21.8-7.7c-0.6,0-1.3,0-1.9,0
			c-18.1,0.9-29.5,14.5-29.5,33.9C426.4,170.4,437.2,183,457.9,183z"/>
		<path class="st1" d="M466.6,166.9c1.1,4.9,2.9,9.4,5.5,13.5c8.2-3.4,12.9-10.1,15.1-18.2l-16.5-2.7
			C469.9,162.4,468.6,165,466.6,166.9z"/>
		<path class="st1" d="M261.6,149.4v32.1h1.6l11.3-32.3c1.9-5.4,2.8-11.1,2.8-11.1h0.5l-11-3.7L261.6,149.4z"/>
		<path class="st1" d="M371.9,124.5c-2.7-0.1-5.5,0-8.2,0.5c-2.7,0.5-5.4,1.4-8.1,2.5v54.1h16.3V124.5z"/>
		<path class="st1" d="M371.9,123.5v-6.1h-16.3v9c2.6-1.1,5.3-2,7.9-2.4C366.3,123.5,369.1,123.4,371.9,123.5z"/>
		<path class="st1" d="M339.9,281.4h5.2v-21.9h8.6l11.4,21.9h17.8l-13.7-26.2V255c6-3,10.1-8,11.1-14.7c0.2-1.1,0.3-2.3,0.3-3.5
			c0-2.7-0.4-5.1-1.2-7.2c-0.1-0.4-0.3-0.7-0.4-1.1c-3.2-7.3-11.1-11.4-22.1-11.4h-2.4h-14.5h-1h-10.2v32.2c3-3.5,6.4-6.7,10.2-9.5
			c0.3-0.2,0.7-0.5,1-0.7c1.7-1.2,3.4-2.3,5.2-3.3v-6.7h8.2c0.4,0,0.7,0,1.1,0c1.8,0.1,3.4,0.3,4.9,1c0.5,0.2,0.9,0.4,1.3,0.7
			c1.9,1.3,3.1,3.5,3.1,7.1c0,0.9-0.1,1.6-0.2,2.4c-1,5-5.4,6.2-10.2,6.2H345v-9.5c-1.8,1-3.5,2.1-5.2,3.3c-0.3,0.2-0.7,0.5-1,0.7
			c-3.8,2.8-7.2,6.1-10.2,9.8v30.5h10.2H339.9z"/>
		<path class="st1" d="M236.1,138.2h0.5c0,0,0.9,5.5,2.8,11l11.3,32.4h9.8v-29.3l-0.5,1.4c-1.6,4.6-2,8.2-2,8.2h-0.5
			c0,0-0.4-3.6-2-8l-12.8-36.5h-6.6h-3.6h-2.2h-9.5v6.6v1.3v56.2h15.2V138.2z"/>
		<polygon class="st1" points="278.9,117.4 277.8,117.4 272.8,117.4 267.1,133.6 277.8,137.2 277.8,138.2 277.8,138.2 277.8,181.6 
			293.7,181.6 293.7,143.5 293.7,142.5 293.7,127 293.7,125.8 293.7,117.4 280.9,117.4 		"/>
		<path class="st1" d="M544.1,168.6l0.2-0.7h8.4c0.8-3.4,1.3-6.9,1.3-10.6c0-0.7,0-1.3-0.1-2h-5.6l1.1-3.4l2.5-8l0.5-1.6
			c0,0,0,0,0,0c1.7-5.5,3-10.8,3-10.8h1c0,0,1.3,5.3,3,10.8l3,9.6l1.1,3.4h-8.5c0,0.7,0.1,1.3,0.1,2c0,3.7-0.4,7.2-1.3,10.6h13.7
			l0.2,0.7l4.1,12.9h16.5l-4.5-12.9l-5.8-16.7l-11.9-34.6h-19.6l-3.3,9.5l-0.4,1.1l-8.3,24l-5.8,16.7l-4.5,12.9h15.8L544.1,168.6z"
			/>
		<path class="st1" d="M250.8,215.9c-0.7,0-1.5-0.1-2.3-0.1c-7,0-13.2,1.8-18.2,5.2c5.1,3.2,10.7,5.7,16.4,7.3
			c0.6-0.1,1.2-0.1,1.8-0.1c0.8,0,1.5,0.1,2.3,0.2c1.8,0.3,3.2,0.8,4.5,1.6c0.5,0.3,1,0.7,1.4,1.2c1.7,1.6,2.9,3.9,3.7,6.6l0.1,0
			l1-0.2l14.6-2.4c-0.4-1.7-1-3.3-1.7-4.8c-0.1-0.3-0.3-0.6-0.5-0.9c-2.5-4.8-6.6-8.8-12.4-11.1c-0.3-0.1-0.7-0.3-1-0.4
			C257.7,216.8,254.5,216.1,250.8,215.9z"/>
		<path class="st1" d="M260.6,245.7h-12.7V257h12.7h1c0,0,0,1.4,0,1.8h0v16.7c0.3-0.4,0.6-0.8,0.9-1.2h0.4l1.4,7h12.2v-22.5v-13.1
			h-14.9H260.6z"/>
		<path class="st1" d="M478,245.6l-0.3-1l-2.4-6.9l-7.1-20.5h-19.6l-14.3,41.3c2.9,0.8,5.8,1.4,8.9,1.4c0.2,0,0.3,0,0.5,0
			c6.2,0,12-1.9,17.6-4.7h-10.9l4.1-13c1.7-5.5,3-10.8,3-10.8h1c0,0,0.7,2.7,1.6,6.3c0.4,1.4,0.8,3,1.3,4.5l3.5,11l0.3,1l0.3,0.8
			l0.1,0.2h-2.1c-6.2,3.4-12.7,5.7-19.7,5.7c-0.2,0-0.4,0-0.5,0c-3.2-0.1-6.3-0.6-9.2-1.5l-7.6,21.9h15.8l4.2-13.6h23.1l4.3,13.6
			h16.5l-9.1-26.4L478,245.6z"/>
		<path class="st1" d="M262.6,355.2h-0.2c-0.3,0-0.6,0-0.9,0c-0.3,0-0.7,0-1,0c-3.6,0.2-7,1-10.1,2.2c5.7,1.3,7.2,3.7,7.2,6.6
			c0,4.1-3.2,7-10.2,7c-2.6,0-4.9-0.6-6.9-1.7c-1.2-0.7-2.3-1.6-3.2-2.6c-3.2,3.7-5.6,8.2-6.9,13.1c2.9,1.5,6.3,2.6,10.1,3.2
			c2.1,0.3,4.2,0.5,6.5,0.5c5.4,0,9.8-0.7,13.5-1.9c0.3-0.1,0.7-0.2,1-0.4c9.4-3.6,13.2-10.9,13.2-18.7c0-1.9-0.2-3.6-0.6-5.2
			C270.5,356,266.6,355.2,262.6,355.2z"/>
		<path class="st1" d="M260.6,344.6c-1.3-0.4-2.6-0.8-4-1.1l-10.4-2.2c-2.6-0.5-4.4-1.2-5.6-2.1c-1.9-1.3-2.5-2.9-2.5-4.8
			c0-3,2.5-5.9,9.1-5.9c7,0,9.3,4,10.4,7.6l3-0.4v-17c-3.7-1.5-8.2-2.4-13.3-2.4c-16.3,0-25.6,8.6-25.6,19.7
			c0,10.5,5.9,16.6,17.8,19l1.1,0.2l8.2,1.7c3.7-1.6,7.6-2.6,11.8-2.8c0.3,0,0.7,0,1,0c0.3,0,0.6,0,0.9,0h0.2
			c3.9,0,7.6,0.7,11.2,1.9c-1.6-5-5.5-8.8-12.2-11.2C261.2,344.8,260.9,344.7,260.6,344.6z"/>
		<path class="st1" d="M332.7,355.9h6.2h1h4.6h11.7v26.2h16.3v-33.8c-8.3-0.3-16.3-2.2-23.6-5.6h-4.4h-4.6h-1h-6.2v-11.2v-1.4v-12.2
			h-9.4h-1.2h-5.8v64.2h16.3V355.9z"/>
		<path class="st1" d="M229.6,379.4c1.4-5,3.9-9.6,7.2-13.4c-0.7-1-1.2-2.2-1.6-3.5l-16.6,2C219.5,370.4,223.3,375.9,229.6,379.4z"
			/>
		<path class="st1" d="M237,439.6c0.2-3.5,1.1-5.9,2.5-7.6c0.2-0.3,0.5-0.5,0.7-0.8c1.5-1.4,3.5-2,5.9-2c4.7,0,7.7,2.8,7.7,7.8
			c0,0.9-0.1,1.9-0.4,2.8c-0.5,1.9-1.7,3.8-3.4,6c2.9,3.5,6,6.8,9.4,9.8c5.3-5.3,8.3-9.8,9.3-15.8c0.2-1.4,0.3-2.8,0.3-4.4
			c0-10.6-8.1-18.3-22.2-18.3c-4.6,0-8.6,0.9-11.9,2.4c-0.3,0.1-0.6,0.3-0.9,0.4c-7.8,3.9-11.6,11.3-11.6,18.6v0.8l14.4,1.4
			L237,439.6z"/>
		<path class="st1" d="M244.1,469.3c3.9-3.4,7.3-6.4,10.3-9c1.5-1.4,2.9-2.7,4.2-3.9c-3.3-3-6.4-6.2-9.3-9.7c-3,3.6-7.6,7.9-14,13.7
			c-3.6,3.3-7.8,7-12.6,11.3v10.9h46.8v-12.9h-25.4V469.3z"/>
		<path class="st1" d="M474.6,340.5c-3.2-14.7-14-23.9-30.5-23.9c-16.9,0-28,9.8-30.9,25.2c-0.1,0.4-0.1,0.7-0.2,1.1
			c-0.4,2.3-0.5,4.7-0.5,7.2c0,20.2,11.6,33.5,31.4,33.5c19.8,0,31.6-13.3,31.6-33.5c0-3-0.3-5.8-0.8-8.4
			C474.7,341.2,474.6,340.8,474.6,340.5z M444,370.5c-8.2,0-14.4-6-14.4-20.6c0-4.2,0.5-7.7,1.5-10.6c0.1-0.4,0.2-0.7,0.4-1.1
			c2.4-6.2,7-8.9,12.5-8.9c5.3,0,9.7,2.5,12.2,8.2c0.2,0.3,0.3,0.7,0.4,1c1.1,3,1.7,6.7,1.7,11.2C458.4,364.5,452.1,370.5,444,370.5
			z"/>
		<polygon class="st1" points="539.7,382.1 540.4,379.4 549.8,342.1 556.4,367.8 560,382.1 579.6,382.1 582.8,367.8 594.2,317.9 
			579.1,317.9 569.3,363.7 560,327.5 559.7,326.3 557.5,317.9 543.5,317.9 540.4,330.1 539.4,334 537.3,342.1 536.9,343.3 
			531.6,364 527.8,346 527.6,345 521.8,317.9 505.6,317.9 512,346.2 512.2,347.2 520.1,382.1 539.4,382.1 		"/>
		<polygon class="st1" points="436.4,432.2 442.6,443.1 453.5,436.3 453.5,448.5 453.5,448.9 453.5,450 453.5,452.7 453.5,466.4 
			453.5,467.4 453.5,482.5 469,482.5 469,467.4 469,466.4 469,448.5 469,426.9 469,425.5 469,418.3 458.3,418.3 		"/>
	</g>
</g>
</svg>
