<?xml version="1.0" encoding="utf-8"?>
<!-- Generator: Adobe Illustrator 21.0.0, SVG Export Plug-In . SVG Version: 6.00 Build 0)  -->
<svg version="1.1" id="Layer_1" xmlns="http://www.w3.org/2000/svg" xmlns:xlink="http://www.w3.org/1999/xlink" x="0px" y="0px"
	 viewBox="0 0 200 200" style="enable-background:new 0 0 200 200;" xml:space="preserve">
<style type="text/css">
	.st0{fill:none;stroke:#000000;stroke-miterlimit:10;}
</style>
<path class="st0" d="M16,126.2c11.9,8.3,28.3,5.5,36.7-6.5c3.9-5.6,10-8.5,16.3-9.1c9-0.8,18.6,7,19.1,7.3
	c33.4,23.4,79.7,15.3,103.1-18.2c8.3-11.9,5.5-28.3-6.5-36.7c-11.9-8.3-28.3-5.5-36.7,6.5c-3.8,5.4-9.7,8.8-15.8,9
	C119,79.2,86.3,55.3,57.4,59.1C38.6,61.6,21.3,72.8,9.6,89.5C1.2,101.5,4.1,117.9,16,126.2z"/>
</svg>
