<?xml version="1.0" encoding="utf-8"?>
<!-- Generator: Adobe Illustrator 21.0.0, SVG Export Plug-In . SVG Version: 6.00 Build 0)  -->
<svg version="1.1" id="Layer_1" xmlns="http://www.w3.org/2000/svg" xmlns:xlink="http://www.w3.org/1999/xlink" x="0px" y="0px"
	 viewBox="0 0 200 200" style="enable-background:new 0 0 200 200;" xml:space="preserve">
<style type="text/css">
	.st0{fill:none;stroke:#231F20;stroke-linecap:round;stroke-linejoin:round;stroke-miterlimit:10;}
	.st1{fill:none;stroke:#231F20;stroke-miterlimit:10;}
</style>
<path class="st0" d="M117.7,30.3c-0.1-16-12.5-28.9-27.6-28.8L54.7,1.7C39.5,1.8,27.3,14.8,27.4,30.8c0.1,16,12.5,28.9,27.6,28.8
	l35.4-0.1C105.6,59.3,117.8,46.3,117.7,30.3z"/>
<path class="st1" d="M37.2,189.6c15.2,11.9,36,8.3,49-5.9c12-13,6.9-29.3,21.8-38.4c7.2-4.4,26.5-7.2,35.6-10.4
	c8-2.9,14.7-9,20.4-16.1c19.1-24.3,14.9-59.5-9.4-78.6c0,0,0,0,0,0c0,0,0,0,0,0C130.2,21,95.1,25.3,76,49.6
	c-5.6,7.2-10,15.1-10.9,23.6c-1,9.6,0.9,29.1-1.7,37.1c-5.3,16.7-22.4,15.5-32.2,30.3C20.5,156.6,21.9,177.6,37.2,189.6
	C37.1,189.6,37.1,189.6,37.2,189.6C37.1,189.6,37.1,189.6,37.2,189.6z"/>
</svg>
