<?xml version="1.0" encoding="utf-8"?>
<!-- Generator: Adobe Illustrator 21.0.0, SVG Export Plug-In . SVG Version: 6.00 Build 0)  -->
<svg version="1.1" id="Layer_1" xmlns="http://www.w3.org/2000/svg" xmlns:xlink="http://www.w3.org/1999/xlink"
	 viewBox="0 0 414 414" xml:space="preserve">
<style type="text/css">
	.st0{fill:none;}
	.st1{fill:#fedb00;}
</style>
<g>
	<path class="st0" d="M62,242.5c-1-3.6-3.4-7.6-10.4-7.6c-6.6,0-9.1,2.9-9.1,5.9c0,1.9,0.6,3.5,2.5,4.8c1.2,0.8,3,1.6,5.6,2.1
		l10.4,2.2c1.4,0.3,2.8,0.7,4,1.1v-8.9L62,242.5z"/>
	<path class="st0" d="M336,270.3l5.3-20.7c-3,1.1-6,2-9.2,2.7L336,270.3z"/>
	<path class="st0" d="M47.2,23.7L60,60.2c1.5,4.4,2,8,2,8h0.5c0,0,0.4-3.6,2-8.2l0.5-1.4V39.3c0-0.4,0.2-0.7,0.5-0.9
		c0.3-0.2,0.7-0.3,1-0.2l5,1.7l5.7-16.2h5h1c-7.3-4-15.6-6.7-26.1-5.8v0.7l0-0.7c0,0,0,0,0,0c-7.2,0.6-14,2.6-20.2,5.8h3.6H47.2z"/>
	<path class="st0" d="M373.5,166.6c0.7-1.5,1.3-3.3,1.6-5.3c0.3-1.8,0.5-3.8,0.5-6.1c0-13.9-6.9-18.9-17.9-18.9h-5.9v6.4
		C361,148.6,368.6,156.9,373.5,166.6z"/>
	<path class="st0" d="M161.7,323.5C161.7,323.5,161.8,323.5,161.7,323.5c14.4,0,23.6,7.3,26,23.5c0.4,2.4,0.6,5.1,0.7,7.9
		c1.8-3.5,3-7.3,3.5-11.3c1-8.8-1.4-17.4-6.8-24.3c-5.5-6.9-13.3-11.3-22-12.4c-6.5-0.8-13,0.4-18.8,3.3v19.4
		C148.7,325.6,154.6,323.5,161.7,323.5z"/>
	<path class="st0" d="M172,358.6c0,0.2,0,0.3,0,0.5C172,358.9,172,358.8,172,358.6z"/>
	<path class="st0" d="M171.5,365.4c0,0,0,0.1,0,0.1C171.5,365.4,171.5,365.4,171.5,365.4z"/>
	<path class="st0" d="M357.7,174.8c2.2,0,4.2-0.2,6-0.6c4-0.9,7.1-2.9,9.2-6.5c-4.8-9.7-12.1-17.9-21.1-23.7v30.8H357.7z"/>
	<path class="st0" d="M137.3,340.7l-71.6-24.5c-0.5-0.2-0.8-0.6-0.8-1.1v-27.1c-3.7,1.2-8.1,1.9-13.5,1.9c-2.3,0-4.5-0.2-6.5-0.5
		c-3.8-0.6-7.2-1.7-10.1-3.2c-0.7,2.6-1.1,5.4-1.1,8.2c-0.1,10.8,1.9,21.4,5.5,31.4c3.3-1.5,7.3-2.4,11.9-2.4
		c14.1,0,22.2,7.7,22.2,18.3c0,1.6-0.1,3-0.3,4.4c-1,6-4,10.5-9.3,15.8c16.4,14.7,37.6,22.9,60.2,22.9c6.3,0,12.5-0.6,18.5-1.9
		c-4.9-5.4-7.5-14-7.5-26.1C134.9,350.6,135.8,345.2,137.3,340.7z"/>
	<path class="st0" d="M252.5,357.4c2.1-0.3,3.9-1.1,5.4-2.2v-0.4v-12.1l-10.9,6.8l-6.2-11l21.8-13.9h10.7v7.2
		c6.5-5.6,15.3-7.9,24.7-6c4.7,1,8,2.7,12,4.8c2.4,1.2,4.9,2.5,8,3.8c3.9,1.6,12.1,3.7,18.6,1.8v-11.6h7.1v-36.2h-19.2l-7.9-34.9
		c-11.6-0.3-21.8-2.4-31.6-4.5c-1.9-0.4-3.9-0.8-5.9-1.2c0.5,2.7,0.8,5.5,0.8,8.4c0,20.2-11.8,33.5-31.6,33.5
		c-19.8,0-31.4-13.3-31.4-33.5c0-2.5,0.2-4.9,0.5-7.2c-0.8,0.2-1.6,0.3-2.3,0.5c-3.6,0.8-7.2,1.6-11,2.3v120.7c0,0,0.1,0.1,0.2,0.1
		h25.3C233,365.5,240.5,359.1,252.5,357.4z"/>
	<path class="st0" d="M270,161.3l-0.3-0.8c-0.6,0.3-1.2,0.7-1.8,1h2.1L270,161.3z"/>
	<path class="st0" d="M172,355.4c0,0.5,0,0.9,0,1.4C172,356.4,172,355.9,172,355.4z"/>
	<path class="st0" d="M143.5,64.1c0.5,0.2,0.8,0.6,0.8,1.1v34.4c4.8,0.3,9.3,1.5,13.8,2.6c7,1.8,14.2,3.6,22.3,2.2
		c9.8-1.6,18.3-7,24-15c5.7-8.1,8-17.9,6.4-27.6c-1.6-9.8-7-18.3-15-24c-5.8-4.1-12.5-6.4-19.4-6.8v57H160V33.8
		c-3,1.3-6.1,2.9-9,4.4c-7.4,3.9-14.9,7.9-22.6,7.3c-12.5-0.9-21.7-6.4-30.2-12.3v15.5L143.5,64.1z"/>
	<path class="st0" d="M171.9,360.3c0,0.1,0,0.3,0,0.4C171.9,360.6,171.9,360.5,171.9,360.3z"/>
	<path class="st0" d="M171.8,362.3C171.8,362.3,171.8,362.3,171.8,362.3C171.8,362.3,171.8,362.3,171.8,362.3z"/>
	<path class="st0" d="M55.2,122.2c3.6,0.2,6.9,0.9,9.7,1.9V87.9h-9.8L43.8,55.5c-1.9-5.4-2.8-11-2.8-11h-0.5v43.3H25.3V31.7
		c-2.5,2.2-4.8,4.7-7,7.5C8.3,52.1,4.2,69.1,7,85.7c2.7,16.1,11.5,30.2,24.8,39.7c1,0.7,1.9,1.3,2.9,2c5-3.4,11.2-5.2,18.2-5.2
		C53.8,122.2,54.5,122.2,55.2,122.2z"/>
	<path class="st0" d="M204.3,202.2h139.3c0.6,0,1.2,0.5,1.2,1.1v33.1l3.1-12.2h14l2.2,8.4c9.7-10.9,14.9-24.8,14.8-39.6
		c0-3.4-0.4-6.7-0.9-9.9c-4,2.2-8.8,3.6-14.3,4.2c-1.9,0.2-3.9,0.3-6,0.3h-22v-51c-5-1.4-10.3-2.2-15.8-2.2l-0.5,0
		c-13.3,0.1-24.6,8.4-35.5,16.4c-0.5,0.3-1,0.7-1.4,1l3.3,9.4l9.1,26.4h-16.5l-4.3-13.6h-23.1l-4.2,13.6h-15.8l7.6-21.9
		c-9-2.7-17-8.6-24.8-14.3c-9.2-6.8-18.7-13.8-29.9-15.5c0.8,2.2,1.2,4.6,1.2,7.2c0,1.2-0.1,2.4-0.3,3.5c-1,6.7-5.1,11.7-11.1,14.7
		v0.2l13.7,26.2h-17.8L158,165.8h-8.6v21.9h-5.2v54.8c3.6,2.6,7.4,4.8,11.5,6.5h4.8v-24.7h16.3v29.3c0.6,0,1.3,0,1.9,0l0.5,0
		c8.9-0.1,16.6-1.1,23.9-2.5v-47.9C203.1,202.7,203.6,202.2,204.3,202.2z"/>
	<path class="st0" d="M248.4,235.8c-5.5,0-10.1,2.7-12.5,8.9c3.8-0.5,7.9-0.9,12.2-1c4.4-0.1,8.5,0,12.5,0.3
		C258.1,238.3,253.7,235.8,248.4,235.8z"/>
	<path class="st0" d="M121,318.7c-6.4-0.8-12.1-4-16-9c-4.3-5.5-5.2-11.1-5.1-14.9c0-8.8-3.3-17.1-9.5-23.4c-3.4-3.4-7.4-6-11.8-7.7
		c0.4,1.6,0.6,3.4,0.6,5.2c0,7.7-3.7,15.1-13.2,18.7v27.5c0,0.1,0,0.1,0.1,0.2l71.6,24.5c1.4-3.7,3.3-6.7,5.6-9.2v-19.9
		c-1.6,0.9-3.1,1.9-4.6,3C133.7,317.7,127.4,319.5,121,318.7z"/>
	<path class="st0" d="M137.1,288.4h-16.3v-64.2h5.8c-5-8.8-7.7-18.8-7.8-29.2c-0.1-15,5.3-28.8,14.4-39.4v-32.2h10.2v-23.1
		c-2.1-0.1-4.3,0-6.6,0.3c-12.3,1.8-20.4,9.5-28.9,17.6c-8.1,7.8-16.6,15.7-29,18.2c0.7,1.5,1.3,3.1,1.7,4.8L66,143.8v8.2h14.9v13.1
		v22.5H68.6l-1.4-7h-0.4c-0.3,0.4-0.6,0.8-0.9,1.2v43.6c6.7,3,10.8,8.4,12.1,14.9L66,242v9.3c6.7,2.4,10.6,6.2,12.2,11.2
		c4.8,1.7,9.2,4.4,12.8,8.2c6.4,6.5,9.9,15,9.8,24.1c0,3.6,0.8,9.1,4.9,14.3c3.8,4.8,9.2,7.9,15.4,8.6c6.1,0.7,12.1-1,17-4.7
		c1.6-1.3,3.4-2.4,5.2-3.4v-47.3h-6.2V288.4z"/>
	<path class="st0" d="M144.3,249h4.6h4.4c-3.1-1.5-6.1-3.2-9-5.3V249z"/>
	<path class="st0" d="M171.7,363.9c0,0,0,0.1,0,0.1C171.7,364,171.7,363.9,171.7,363.9z"/>
	<path class="st0" d="M137.1,237.8V249h6.2v-6C141.1,241.5,139.1,239.7,137.1,237.8z"/>
	<path class="st0" d="M248.1,244.7c-4.5,0.1-8.6,0.5-12.6,1.1c-1,2.8-1.5,6.3-1.5,10.6c0,14.5,6.2,20.6,14.4,20.6
		c8.2,0,14.4-6,14.4-20.6c0-4.6-0.6-8.3-1.7-11.2C256.9,244.7,252.6,244.5,248.1,244.7z"/>
	<path class="st0" d="M365.3,324.7c-0.4,0-0.7,0-1.1,0c-0.3,0-0.5,0-0.8,0h0.6H365.3z"/>
	<path class="st0" d="M66.2,39.2C66.2,39.2,66.2,39.2,66.2,39.2c-0.1,0-0.1,0-0.1,0c0,0-0.1,0.1-0.1,0.1v16.4l5.2-14.9L66.2,39.2z"
		/>
	<path class="st0" d="M45,275.7c1.9,1.1,4.3,1.7,6.9,1.7c7,0,10.2-2.9,10.2-7c0-2.9-1.5-5.3-7.2-6.6c-5.1,2-9.5,5.2-13,9.3
		C42.7,274.2,43.8,275,45,275.7z"/>
	<path class="st0" d="M352.8,61.7h5.6c-0.2-4-0.9-7.8-2-11.4l-2.5,8L352.8,61.7z"/>
	<path class="st0" d="M317.6,335.4c-3.1-1.3-5.6-2.6-8-3.8c-3.9-2-7.2-3.7-11.8-4.7c-2.1-0.5-4.2-0.7-6.3-0.7
		c-6.9,0-13.3,2.5-18.1,7v21.6v17.9h70.2c0.1,0,0.2-0.1,0.2-0.1v-32.9h-7.1v-2.5C329.9,339.1,321.6,337,317.6,335.4z"/>
	<path class="st0" d="M143.2,65l-45-15.1v38H82.3V44.6l0,0h-0.5c0,0-0.9,5.6-2.8,11.1L67.6,87.9H66v36.7c5.7,2.4,9.8,6.3,12.4,11.1
		c12.3-2.4,20.7-10.3,28.8-18c8.6-8.2,16.8-16,29.5-17.9c2.3-0.3,4.5-0.4,6.7-0.3V65.2C143.3,65.1,143.2,65,143.2,65z"/>
	<path class="st0" d="M367.9,61.7l-1.1-3.4l-3-9.6c-1.7-5.5-3-10.8-3-10.8h-1c0,0-1.3,5.3-3,10.8c1.5,4.1,2.3,8.5,2.5,13H367.9z"/>
	<path class="st0" d="M55.2,134.7c-0.7-0.1-1.5-0.2-2.3-0.2c-0.6,0-1.2,0-1.8,0.1c2.8,0.8,5.7,1.3,8.6,1.7
		C58.5,135.5,57,134.9,55.2,134.7z"/>
	<path class="st0" d="M385.7,339.7c-3.2,3.2-5.9,6.7-8.2,10.3c-1,1.6-1.9,3.2-2.8,4.8h0c-2.4,4.5-4.4,9.3-5.9,14.5
		c-1.7,5.5-2.8,12.1-3.4,19.6h-17.8c1.4-10.5,3.6-19.3,6.6-26.4c1.1-2.5,2.4-5.1,3.9-7.7h0c2.7-4.8,6.2-9.8,10.4-15.1h-23.6v32.9
		c0,0.6-0.5,1.1-1.2,1.1h-70.2v15.1h-15.5v-15.1h-27.7c-1.3,2.9-1.9,6-1.9,9c0,13.4,10.9,24.4,24.4,24.4c9.5,0,15.4-4.6,21.6-9.4
		c8.1-6.3,17.2-13.4,36.7-12.8c11.1,0.4,21.7,4.8,31.1,8.6c8,3.3,15.6,6.5,22.1,6.5c20.8,0,37.7-16.9,37.7-37.7
		c0-11.4-5.1-21.6-13.1-28.5v2.9C387.7,337.7,386.7,338.7,385.7,339.7z"/>
	<path class="st0" d="M52.2,163.4v-11.3H65V144l-0.1,0c-0.8-2.7-2-4.9-3.7-6.6c-4.1-0.4-8.2-1.2-12.1-2.4c-6.2,1.8-10.9,8-10.9,20.4
		c0,15,6.9,21.2,14.7,21.2c6.4,0,10.4-3.2,12.2-7.4v-5.8H52.2z"/>
	<path class="st0" d="M217.6,248.1c2.9-15.4,13.9-25.2,30.9-25.2c16.5,0,27.3,9.1,30.5,23.9c2.1,0.4,4.1,0.8,6.2,1.3
		c9.8,2,19.8,4.1,31.2,4.5l-6.4-28.3h16.2l5.7,27.1c3.3-0.7,6.6-1.7,9.7-2.9l2.1-8.1v-37c0,0-0.1-0.1-0.2-0.1H204.3
		c-0.1,0-0.2,0.1-0.2,0.1V251c3.7-0.7,7.2-1.5,10.7-2.3C215.8,248.5,216.7,248.3,217.6,248.1z"/>
	<path class="st0" d="M127.7,224.3h9.4v12.2c0.1,0.1,0.2,0.2,0.2,0.2c1.9,1.8,3.9,3.5,5.9,5.1v-54.1h-10.2v-30.5
		c-8.4,10.3-13.5,23.5-13.4,37.8C119.8,205.5,122.6,215.5,127.7,224.3z"/>
	<path class="st0" d="M274,43c-1.9-4.6-5.7-7.8-11.7-7.8c-0.7,0-1.3,0.1-1.9,0.1c-7.1,0.9-12.4,7.1-12.4,20.3
		c0,14.9,6.5,20.9,14.3,20.9c3.2,0,5.8-0.9,7.9-2.5c-0.8-3.3-1.2-6.7-1.2-10.3C269,56.2,270.8,49.2,274,43z"/>
	<path class="st0" d="M58.2,343.4c0-5-3.1-7.8-7.7-7.8c-2.4,0-4.4,0.6-5.9,2c2.4,4.5,5.3,8.9,8.5,13c0.4,0.6,0.9,1.1,1.3,1.7
		c1.7-2.2,2.9-4.1,3.4-6C58.1,345.2,58.2,344.3,58.2,343.4z"/>
	<path class="st0" d="M265.9,148.5c-0.5-1.6-0.9-3.1-1.3-4.5c-1-3.6-1.6-6.3-1.6-6.3h-1c0,0-1.3,5.3-3,10.8l-4.1,13h10.9
		c1.2-0.6,2.4-1.3,3.6-2L265.9,148.5z"/>
	<path class="st0" d="M271,73.2c2-1.9,3.3-4.5,4.1-7.4l16.5,2.7c-2.2,8.2-7,14.8-15.1,18.2c7.8,12.7,21.8,21.2,37.7,21.2
		c20.7,0,38.2-14.3,42.9-33.6h-8.4l-0.2,0.7l-4,12.9h-15.8l4.5-12.9l5.8-16.7l8.3-24c-8.1-9.1-19.9-14.9-33-14.9
		c-11.3,0-21.6,4.3-29.4,11.3c3.1,3.2,5.1,7.2,5.8,11.7l-16,2.4c0-0.2-0.1-0.3-0.2-0.5c-2.9,5.9-4.5,12.4-4.5,19.4
		C270,67,270.3,70.2,271,73.2z"/>
	<path class="st0" d="M257.9,359v-2.6c-1.5,1-3.2,1.7-5.3,2c-11.4,1.6-18.6,7.5-22,14.4h27.2V359z"/>
	<path class="st0" d="M165.8,336.4c0,0,0.1,0,0.1,0.1C165.9,336.5,165.9,336.5,165.8,336.4z"/>
	<path class="st0" d="M158.2,377.7c0.2,0.1,0.4,0.1,0.6,0.2l0,0C158.6,377.8,158.4,377.7,158.2,377.7z"/>
	<path class="st0" d="M167.2,337.4c0,0,0.1,0.1,0.1,0.1C167.3,337.5,167.3,337.5,167.2,337.4z"/>
	<path class="st0" d="M162.5,335.5c0.1,0,0.1,0,0.2,0C162.7,335.5,162.6,335.5,162.5,335.5z"/>
	<path class="st0" d="M164.3,335.8c0.1,0,0.1,0,0.2,0C164.4,335.8,164.3,335.8,164.3,335.8z"/>
	<path class="st0" d="M170.4,342.8c0,0,0,0.1,0,0.1C170.4,342.9,170.4,342.8,170.4,342.8z"/>
	<path class="st0" d="M169.5,340.6c0,0,0,0.1,0.1,0.1C169.5,340.7,169.5,340.6,169.5,340.6z"/>
	<path class="st0" d="M168.4,338.8c0,0,0,0.1,0.1,0.1C168.5,338.9,168.5,338.9,168.4,338.8z"/>
	<path class="st0" d="M162.6,378.2c0,0-0.1,0-0.2,0C162.5,378.3,162.6,378.3,162.6,378.2z"/>
	<path class="st0" d="M171.1,345.5c0,0,0,0.1,0,0.1C171.1,345.5,171.1,345.5,171.1,345.5z"/>
	<path class="st0" d="M160.6,378.2c0.4,0,0.8,0.1,1.1,0.1l0,0C161.3,378.3,160.9,378.3,160.6,378.2L160.6,378.2z"/>
	<path class="st0" d="M155.5,375.7c0.4,0.5,0.8,0.9,1.3,1.2C156.3,376.5,155.9,376.1,155.5,375.7z"/>
	<path class="st0" d="M158.2,377.7c-0.5-0.2-1-0.5-1.5-0.8C157.2,377.2,157.7,377.4,158.2,377.7z"/>
	<path class="st0" d="M152.3,367.9c-0.1-0.7-0.2-1.3-0.3-2.1C152,366.5,152.1,367.2,152.3,367.9z"/>
	<g>
		<path d="M57.2,18C57.2,18,57.2,18,57.2,18l0,0.7L57.2,18c10.5-0.9,18.8,1.8,26.1,5.8h2.1C77.5,19.2,68.6,16,57.1,17
			c-8,0.7-15.6,3-22.3,6.8h2.2C43.1,20.6,50,18.6,57.2,18z"/>
		<path d="M49.1,135c3.9,1.2,8,2,12.1,2.4c-0.4-0.4-0.9-0.8-1.4-1.2c-2.9-0.4-5.8-0.9-8.6-1.7c-5.8-1.6-11.3-4-16.4-7.3
			c-1-0.6-2-1.3-2.9-2C18.5,115.9,9.7,101.8,7,85.7C4.2,69.1,8.3,52.1,18.3,39.1c2.1-2.7,4.5-5.2,7-7.5v-1.3
			c-2.8,2.4-5.4,5.2-7.8,8.2C7.4,51.7,3.2,69,6,85.9c2.8,16.4,11.7,30.7,25.2,40.3c0.9,0.6,1.7,1.2,2.6,1.8
			C38.7,131,43.7,133.4,49.1,135z"/>
		<path d="M314.2,19.5c13.1,0,24.9,5.8,33,14.9l0.4-1.1c-8.3-9.1-20.2-14.8-33.4-14.8c-11.6,0-22.1,4.4-30.2,11.6
			c0.2,0.2,0.5,0.5,0.7,0.7C292.6,23.7,302.9,19.5,314.2,19.5z"/>
		<path d="M275.5,87.1c7.9,13.1,22.3,21.8,38.7,21.8c21.3,0,39.2-14.8,44-34.6c0.8-3.4,1.3-7,1.3-10.6c0-0.7,0-1.3-0.1-2
			c-0.2-4.6-1.1-8.9-2.5-13c0,0,0,0,0,0l-0.5,1.6c1.2,3.6,1.9,7.5,2,11.4c0,0.7,0.1,1.3,0.1,2c0,3.7-0.5,7.2-1.3,10.6
			c-4.8,19.3-22.2,33.6-42.9,33.6c-15.9,0-29.9-8.5-37.7-21.2c-2.5-4.1-4.4-8.7-5.5-13.5c-0.7-3.1-1-6.3-1-9.5
			c0-7,1.6-13.5,4.5-19.4c-0.1-0.4-0.3-0.9-0.5-1.3c-3.2,6.2-5,13.2-5,20.7c0,3.5,0.4,7,1.2,10.3C271.3,78.7,273.1,83.1,275.5,87.1z
			"/>
		<path d="M65,287.9v27.1c0,0.5,0.3,1,0.8,1.1l71.6,24.5c0-0.1,0.1-0.2,0.1-0.3c0.1-0.2,0.2-0.4,0.3-0.7l-71.6-24.5
			c-0.1,0-0.1-0.1-0.1-0.2v-27.5C65.7,287.7,65.3,287.8,65,287.9z"/>
		<path d="M66,87.9V55.8V39.3c0-0.1,0-0.1,0.1-0.1c0,0,0.1,0,0.1,0c0,0,0,0,0,0l5,1.7l11,3.7l0,0v0v-1l-10.7-3.6l-5-1.7
			c-0.4-0.1-0.7-0.1-1,0.2C65.2,38.6,65,39,65,39.3v19.3v29.3v36.3c0.3,0.1,0.7,0.3,1,0.4V87.9z"/>
		<path d="M143.3,65.2v34.3c-2.2-0.1-4.4,0-6.7,0.3c-12.6,1.9-20.8,9.7-29.5,17.9c-8.1,7.7-16.5,15.7-28.8,18
			c0.2,0.3,0.3,0.6,0.5,0.9c12.4-2.5,20.9-10.5,29-18.2c8.5-8.1,16.6-15.8,28.9-17.6c2.2-0.3,4.4-0.4,6.6-0.3v23.1h1v-23
			c4.7,0.3,9.2,1.5,13.5,2.6c7.1,1.8,14.4,3.7,22.7,2.3c10-1.7,18.8-7.2,24.7-15.4c5.9-8.3,8.2-18.4,6.5-28.4
			c-1.7-10-7.2-18.8-15.4-24.7c-6-4.2-12.8-6.6-20-7c-2.8-0.1-5.6,0-8.4,0.5c-2.6,0.4-5.3,1.3-7.9,2.4c-3.2,1.3-6.4,3-9.5,4.6
			c-7.2,3.8-14.7,7.7-22.1,7.2c-12.5-0.9-21.7-6.6-30.3-12.5v1.2c8.6,5.8,17.7,11.3,30.2,12.3c7.7,0.6,15.3-3.4,22.6-7.3
			c3-1.6,6-3.1,9-4.4c2.7-1.1,5.4-2.1,8.1-2.5c2.8-0.5,5.5-0.6,8.2-0.5c6.9,0.4,13.6,2.7,19.4,6.8c8.1,5.7,13.4,14.3,15,24
			c1.6,9.8-0.6,19.6-6.4,27.6c-5.7,8.1-14.3,13.4-24,15c-8.1,1.4-15.3-0.5-22.3-2.2c-4.4-1.1-9-2.3-13.8-2.6V65.2
			c0-0.5-0.3-1-0.8-1.1L98.1,48.8v1.1l45,15.1C143.2,65,143.3,65.1,143.3,65.2z"/>
		<path d="M66,163.4h-1v5.8v13.9v42v17v8.9c0.3,0.1,0.7,0.2,1,0.3V242v-16.4v-43.6v-16.7h0C66,164.8,66,163.4,66,163.4z"/>
		<polygon points="66,143.8 65,144 65,152.1 66,152.1 		"/>
		<path d="M273.4,373.8h70.2c0.6,0,1.2-0.5,1.2-1.1v-32.9h-1v32.9c0,0-0.1,0.1-0.2,0.1h-70.2V373.8z"/>
		<polygon points="344.8,285.7 344.1,288.4 343.8,288.4 343.8,324.7 344.8,324.7 		"/>
		<path d="M341.7,248.4c-3.1,1.2-6.4,2.2-9.7,2.9l0.2,1c3.1-0.7,6.2-1.6,9.2-2.7L341.7,248.4z"/>
		<path d="M316.6,253.6l-0.2-1c-11.4-0.3-21.4-2.4-31.2-4.5c-2.1-0.4-4.1-0.9-6.2-1.3c0.1,0.4,0.1,0.7,0.2,1.1
			c2,0.4,3.9,0.8,5.9,1.2C294.9,251.1,305,253.3,316.6,253.6z"/>
		<path d="M183.7,135.9c11.2,1.7,20.7,8.7,29.9,15.5c7.8,5.8,15.8,11.7,24.8,14.3c3,0.9,6,1.4,9.2,1.5c0.2,0,0.4,0,0.5,0
			c7.1,0,13.6-2.3,19.7-5.7c0.6-0.3,1.2-0.7,1.8-1l-0.3-1c-1.2,0.7-2.4,1.4-3.6,2c-5.6,2.8-11.4,4.7-17.6,4.7c-0.2,0-0.3,0-0.5,0
			c-3.1-0.1-6.1-0.6-8.9-1.4c-8.9-2.6-16.8-8.5-24.6-14.2c-9.5-7-19.2-14.2-30.9-15.8C183.4,135.2,183.6,135.6,183.7,135.9z"/>
		<path d="M248.1,243.7c-4.3,0.1-8.3,0.5-12.2,1c-0.1,0.3-0.3,0.7-0.4,1.1c4-0.5,8.1-0.9,12.6-1.1c4.5-0.2,8.8,0,12.9,0.4
			c-0.1-0.4-0.3-0.7-0.4-1C256.6,243.7,252.4,243.5,248.1,243.7z"/>
		<path d="M364.1,232.7l0.3,1.2c10.1-11.2,15.6-25.5,15.5-40.7c0-3.6-0.4-7-1-10.4c-0.3,0.2-0.6,0.3-0.9,0.5
			c0.6,3.2,0.9,6.5,0.9,9.9C379,207.8,373.8,221.7,364.1,232.7z"/>
		<path d="M335.7,135.6c-5-1.4-10.3-2.1-15.8-2.1l-0.5,0c-13.6,0.1-25,8.5-36.1,16.6c-0.4,0.3-0.8,0.6-1.2,0.9l0.3,1
			c0.5-0.3,1-0.7,1.4-1c10.9-8,22.2-16.3,35.5-16.4l0.5,0c5.5,0,10.8,0.8,15.8,2.2c5.8,1.6,11.2,4.1,16.2,7.3
			c9,5.8,16.4,14,21.1,23.7c0.2-0.3,0.4-0.7,0.6-1.1c-4.9-9.8-12.5-18-21.7-23.9C346.9,139.6,341.4,137.2,335.7,135.6z"/>
		<path d="M143.3,147.5c0.3-0.2,0.7-0.5,1-0.7c1.7-1.2,3.4-2.3,5.2-3.3c3-1.7,6.1-3.2,9.3-4.3c2-0.7,4.1-1.3,6.2-1.9
			c-0.4-0.3-0.9-0.5-1.3-0.7c-1.7,0.4-3.3,0.9-4.9,1.5c-3.3,1.2-6.4,2.6-9.3,4.2c-1.8,1-3.5,2.1-5.2,3.3c-0.3,0.2-0.7,0.5-1,0.7
			c-3.7,2.8-7.1,5.9-10.2,9.5c-9.1,10.6-14.5,24.4-14.4,39.4c0.1,10.4,2.8,20.4,7.8,29.2h1.2c-5.1-8.8-7.9-18.8-8-29.2
			c-0.1-14.3,4.9-27.5,13.4-37.8C136.1,153.6,139.5,150.3,143.3,147.5z"/>
		<path d="M124,384.9c-22.6,0-43.8-8.2-60.2-22.9c-3.3-3-6.5-6.3-9.4-9.8c-0.4-0.5-0.9-1.1-1.3-1.7c-3.2-4.1-6-8.4-8.5-13
			c-0.3,0.2-0.5,0.5-0.7,0.8c2.4,4.5,5.2,8.8,8.4,12.8c0.5,0.6,1,1.2,1.5,1.8c2.9,3.5,6,6.7,9.3,9.7c16.6,14.9,38,23.2,60.9,23.2
			c6.6,0,13-0.7,19.3-2c-0.3-0.3-0.6-0.6-0.8-0.8C136.5,384.2,130.3,384.9,124,384.9z"/>
		<path d="M163.2,305.9c-6.6-0.8-13.1,0.3-18.9,3.2v-46.8h-1v47.3c-1.8,1-3.5,2.1-5.2,3.4c-4.8,3.8-10.8,5.5-17,4.7
			c-6.1-0.7-11.6-3.8-15.4-8.6c-4.1-5.2-4.9-10.7-4.9-14.3c0.1-9.1-3.4-17.7-9.8-24.1c-3.7-3.7-8.1-6.5-12.8-8.2
			c-3.5-1.2-7.3-1.9-11.2-1.9h-0.2c-0.3,0-0.6,0-0.9,0c-0.3,0-0.7,0-1,0c-4.2,0.2-8.2,1.2-11.8,2.8c-4.6,2-8.7,5.1-11.9,8.8
			c-3.3,3.8-5.8,8.4-7.2,13.4c-0.7,2.8-1.2,5.7-1.2,8.7c-0.1,10.9,1.9,21.7,5.6,31.9c0.3-0.1,0.6-0.3,0.9-0.4
			c-3.7-10-5.6-20.7-5.5-31.4c0-2.8,0.4-5.6,1.1-8.2c1.3-4.9,3.7-9.4,6.9-13.1c3.5-4.1,8-7.3,13-9.3c3.2-1.2,6.6-2,10.1-2.2
			c0.3,0,0.7,0,1,0c0.3,0,0.6,0,0.9,0H67c4,0,7.9,0.8,11.5,2.1c4.4,1.7,8.4,4.2,11.8,7.7c6.2,6.3,9.6,14.6,9.5,23.4
			c0,3.8,0.9,9.5,5.1,14.9c4,5,9.6,8.2,16,9c6.4,0.8,12.7-1,17.7-5c1.4-1.1,3-2.1,4.6-3v19.9c0.3-0.3,0.7-0.7,1-1v-19.4
			c5.7-2.9,12.2-4.1,18.8-3.3c8.8,1,16.6,5.4,22,12.4c5.5,6.9,7.9,15.6,6.8,24.3c-0.5,4-1.7,7.8-3.5,11.3c-2.1,4.1-5.1,7.8-8.9,10.8
			c-3.1,2.4-6.3,4.7-9.7,6.6c0,0,0,0,0,0c-2.3,1.4-4.6,2.6-7,3.7c-1.3,0.6-2.7,1.2-4,1.8c0.3,0.1,0.6,0.2,0.8,0.2
			c0.3,0.1,0.6,0.1,0.9,0.1h0c1.5-0.7,3-1.4,4.4-2.1c1.4-0.7,2.7-1.4,4.1-2.2c0,0,0,0,0,0c3.8-2.2,7.5-4.7,11.1-7.4
			c3.4-2.7,6.2-5.9,8.3-9.5c2.3-4,3.9-8.4,4.4-13.2c1.1-9-1.4-17.9-7-25.1C180.3,311.5,172.2,307,163.2,305.9z"/>
		<path d="M273.4,333.2c4.9-4.5,11.2-7,18.1-7c2.1,0,4.2,0.2,6.3,0.7c4.5,1,7.9,2.7,11.8,4.7c2.4,1.2,4.9,2.5,8,3.8
			c3.9,1.6,12.2,3.7,19,1.9v-1c-6.5,1.9-14.8-0.2-18.6-1.8c-3.1-1.3-5.5-2.5-8-3.8c-3.9-2-7.3-3.8-12-4.8c-9.4-2-18.2,0.4-24.7,6
			V333.2z"/>
		<path d="M388.8,332.5c-4.5-3.8-9.9-6.5-15.8-7.9c-2.8-0.7-5.8-1-8.8-1c-2.2,0-4.3,0.4-6.3,1h4.8h0.6c0.3,0,0.5,0,0.8,0
			c0.4,0,0.8,0,1.1,0c9,0.3,17.2,3.7,23.5,9.2c8,6.9,13.1,17.1,13.1,28.5c0,20.8-16.9,37.7-37.7,37.7c-6.5,0-14.1-3.1-22.1-6.5
			c-9.3-3.9-19.9-8.3-31.1-8.6c-19.5-0.7-28.6,6.5-36.7,12.8c-6.2,4.8-12,9.4-21.6,9.4c-13.4,0-24.4-10.9-24.4-24.4
			c0-3,0.6-6.1,1.9-9h27.7v-1h-27.2c3.4-6.8,10.5-12.7,22-14.4c2-0.3,3.8-1,5.3-2v-1.2c-1.5,1.1-3.3,1.9-5.4,2.2
			c-12.1,1.7-19.5,8-22.9,15.4h-25.3c-0.1,0-0.2-0.1-0.2-0.1V252c3.8-0.7,7.4-1.5,11-2.3c0.8-0.2,1.6-0.3,2.3-0.5
			c0.1-0.4,0.1-0.7,0.2-1.1c-0.9,0.2-1.8,0.4-2.8,0.6c-3.5,0.8-7.1,1.6-10.7,2.3v-47.7c0,0,0.1-0.1,0.2-0.1h139.3
			c0.1,0,0.2,0.1,0.2,0.1v37l1-3.9v-33.1c0-0.6-0.5-1.1-1.2-1.1H204.3c-0.6,0-1.2,0.5-1.2,1.1v47.9c-7.2,1.4-15,2.4-23.9,2.5l-0.5,0
			c-0.6,0-1.3,0-1.9,0c-7.4-0.2-14.5-1.8-21.1-4.6c-4-1.7-7.9-3.9-11.5-6.5v-54.8h-1v54.1c-2.1-1.6-4-3.3-5.9-5.1
			c-0.1-0.1-0.2-0.2-0.2-0.2v1.4c2,1.9,4,3.6,6.2,5.2v6h1v-5.3c2.9,2,5.9,3.8,9,5.3c7.3,3.4,15.3,5.4,23.6,5.6c0.6,0,1.3,0,1.9,0
			l0.5,0c8.9-0.1,16.6-1.1,23.9-2.5v120.5c0,0.6,0.5,1.1,1.2,1.1h24.9c-1.2,2.9-1.8,6-1.8,9c0,14,11.4,25.4,25.4,25.4
			c9.9,0,15.9-4.7,22.2-9.6c7.9-6.2,16.9-13.2,36-12.5c11,0.4,21.5,4.7,30.7,8.6c8.1,3.4,15.8,6.5,22.5,6.5
			c21.4,0,38.7-17.4,38.7-38.7C402.9,350.4,397.4,339.6,388.8,332.5z"/>
	</g>
	<g>
		<path class="st1" d="M363.9,324.7h-0.6h-0.6h-4.8h-13.1h-1h-7.1v11.6v1v2.5h7.1h1h23.6c-4.2,5.2-7.7,10.3-10.4,15.1h0
			c-1.5,2.6-2.8,5.2-3.9,7.7c-3,7.1-5.2,15.9-6.6,26.4h17.8c0.6-7.5,1.7-14.1,3.4-19.6c1.6-5.2,3.6-10,5.9-14.5h0
			c0.9-1.6,1.8-3.3,2.8-4.8c2.3-3.6,5.1-7,8.2-10.3c1-1,2-2,3.1-3v-2.9c-6.4-5.5-14.6-8.9-23.5-9.2H363.9z"/>
		<path class="st1" d="M388.8,332.5v-7.9H373C378.9,326,384.3,328.8,388.8,332.5z"/>
		<path class="st1" d="M180.2,366.4c-3.5,2.8-7.2,5.3-11.1,7.4c0,0,0,0,0,0c-0.5,0.9-1.1,1.6-1.7,2.2c-1.3,1.3-3,2-4.8,2.1
			c0,0-0.1,0-0.2,0c-0.2,0-0.5,0-0.7,0c-0.4,0-0.8,0-1.1-0.1c-0.6-0.1-1.2-0.2-1.7-0.4c-0.2-0.1-0.4-0.1-0.6-0.2
			c-0.5-0.2-1-0.5-1.5-0.8s-0.9-0.7-1.3-1.2c-1.5-1.7-2.5-4.2-3.2-7.8c-0.1-0.7-0.2-1.3-0.3-2.1c-0.3-2.5-0.5-5.5-0.5-8.9
			c0-7.8,0.9-13.1,2.5-16.5c1.7-3.5,4.4-5,7.7-5h0c0.3,0,0.5,0,0.8,0c0.1,0,0.1,0,0.2,0c0.5,0.1,1,0.1,1.5,0.3c0.1,0,0.1,0,0.2,0
			c0.5,0.2,1,0.3,1.4,0.6c0,0,0.1,0,0.1,0.1c0.4,0.3,0.9,0.6,1.3,0.9c0,0,0.1,0.1,0.1,0.1c0.4,0.4,0.8,0.8,1.1,1.3
			c0,0,0,0.1,0.1,0.1c0.4,0.5,0.7,1.1,1,1.7c0,0,0,0.1,0.1,0.1c0.3,0.6,0.6,1.3,0.8,2.1c0,0,0,0.1,0,0.1c0.2,0.8,0.5,1.6,0.7,2.5
			c0,0,0,0.1,0,0.1c0.1,0.5,0.2,0.9,0.3,1.4c0.4,2.4,0.6,5.2,0.7,8.4c0,0.5,0,0.9,0,1.4c0,0.6,0,1.2,0,1.7c0,0.2,0,0.3,0,0.5
			c0,0.4,0,0.8,0,1.2c0,0.1,0,0.3,0,0.4c0,0.5-0.1,1-0.1,1.5c0,0,0,0,0,0c0,0.5-0.1,1.1-0.1,1.6c0,0,0,0.1,0,0.1
			c0,0.5-0.1,0.9-0.2,1.4c0,0,0,0.1,0,0.1c-0.4,2.8-0.9,5-1.7,6.8c0,0,0,0,0,0c3.3-2,6.6-4.2,9.7-6.6c3.8-3,6.8-6.6,8.9-10.8
			c-0.1-2.8-0.3-5.5-0.7-7.9c-2.5-16.2-11.6-23.5-26-23.5c0,0-0.1,0-0.1,0c-7.1,0-13,2.1-17.4,6.1c-0.3,0.3-0.7,0.6-1,1
			c-2.3,2.4-4.2,5.5-5.6,9.2c-0.1,0.2-0.2,0.4-0.3,0.7c0,0.1-0.1,0.2-0.1,0.3c-1.5,4.5-2.4,9.9-2.4,16.2c0,12.1,2.6,20.7,7.5,26.1
			c0.3,0.3,0.5,0.6,0.8,0.8c4.5,4.4,10.6,6.4,18.3,6.4c11.1,0,19.1-4.7,23.4-14.2c2.3-5,3.5-11.4,3.5-19.2
			C186.4,360.5,183.6,363.8,180.2,366.4z"/>
		<path class="st1" d="M66,225.5V242l12.1-1.5C76.8,233.9,72.7,228.6,66,225.5z"/>
		<path class="st1" d="M160.6,249h-4.8c6.6,2.8,13.8,4.4,21.1,4.6v-29.3h-16.3V249z"/>
		<path class="st1" d="M335.7,136.7v51h22c2.1,0,4.1-0.1,6-0.3c5.4-0.6,10.2-2,14.3-4.2c0.3-0.2,0.6-0.3,0.9-0.5
			c7.3-4.3,12-11.4,13.3-21.3c0.2-1.9,0.4-3.8,0.4-5.8c0-23.5-16-32-34.8-32h-22v12.1c5.8,1.6,11.2,4,16.2,7.1v-6.4h5.9
			c11.1,0,17.9,5,17.9,18.9c0,2.3-0.2,4.3-0.5,6.1c-0.4,2-0.9,3.8-1.6,5.3c-0.2,0.4-0.4,0.7-0.6,1.1c-2.1,3.6-5.3,5.6-9.2,6.5
			c-1.9,0.4-3.9,0.6-6,0.6h-5.9V144C346.9,140.8,341.4,138.3,335.7,136.7z"/>
		<path class="st1" d="M49.5,189.1c7.6,0,12.1-2.2,15.5-6v-13.9c-1.7,4.1-5.7,7.4-12.2,7.4c-7.8,0-14.7-6.2-14.7-21.2
			c0-12.4,4.7-18.6,10.9-20.4c-5.3-1.6-10.4-4-15.2-7.1c-7.8,5.7-12.6,15.5-12.6,28.4C21.3,177.4,32.9,189.1,49.5,189.1z"/>
		<path class="st1" d="M262.3,89.3c5.1,0,9.5-0.8,13.2-2.2c-2.4-4-4.3-8.4-5.4-13.2c-2,1.6-4.6,2.5-7.9,2.5c-7.7,0-14.3-6-14.3-20.9
			c0-13.2,5.2-19.4,12.4-20.3c0.6-0.1,1.3-0.1,1.9-0.1c6,0,9.8,3.2,11.7,7.8c0.2,0.4,0.3,0.9,0.5,1.3c0.1,0.2,0.1,0.3,0.2,0.5
			l16-2.4c-0.8-4.5-2.8-8.5-5.8-11.7c-0.2-0.2-0.5-0.5-0.7-0.7c-4.9-4.7-12.3-7.7-21.8-7.7c-0.6,0-1.3,0-1.9,0
			c-18.1,0.9-29.5,14.5-29.5,33.9C230.8,76.8,241.6,89.3,262.3,89.3z"/>
		<path class="st1" d="M271,73.2c1.1,4.9,2.9,9.4,5.5,13.5c8.2-3.4,12.9-10.1,15.1-18.2l-16.5-2.7C274.3,68.8,273,71.4,271,73.2z"/>
		<path class="st1" d="M66,55.8v32.1h1.6l11.3-32.3c1.9-5.4,2.8-11.1,2.8-11.1h0.5l-11-3.7L66,55.8z"/>
		<path class="st1" d="M176.3,30.9c-2.7-0.1-5.5,0-8.2,0.5c-2.7,0.5-5.4,1.4-8.1,2.5v54.1h16.3V30.9z"/>
		<path class="st1" d="M176.3,29.9v-6.1H160v9c2.6-1.1,5.3-2,7.9-2.4C170.7,29.9,173.5,29.7,176.3,29.9z"/>
		<path class="st1" d="M144.3,187.7h5.2v-21.9h8.6l11.4,21.9h17.8l-13.7-26.2v-0.2c6-3,10.1-8,11.1-14.7c0.2-1.1,0.3-2.3,0.3-3.5
			c0-2.7-0.4-5.1-1.2-7.2c-0.1-0.4-0.3-0.7-0.4-1.1c-3.2-7.3-11.1-11.4-22.1-11.4h-2.4h-14.5h-1h-10.2v32.2c3-3.5,6.4-6.7,10.2-9.5
			c0.3-0.2,0.7-0.5,1-0.7c1.7-1.2,3.4-2.3,5.2-3.3v-6.7h8.2c0.4,0,0.7,0,1.1,0c1.8,0.1,3.4,0.3,4.9,1c0.5,0.2,0.9,0.4,1.3,0.7
			c1.9,1.3,3.1,3.5,3.1,7.1c0,0.9-0.1,1.6-0.2,2.4c-1,5-5.4,6.2-10.2,6.2h-8.2v-9.5c-1.8,1-3.5,2.1-5.2,3.3c-0.3,0.2-0.7,0.5-1,0.7
			c-3.8,2.8-7.2,6.1-10.2,9.8v30.5h10.2H144.3z"/>
		<path class="st1" d="M40.5,44.5H41c0,0,0.9,5.5,2.8,11l11.3,32.4H65V58.6L64.5,60c-1.6,4.6-2,8.2-2,8.2h-0.5c0,0-0.4-3.6-2-8
			L47.2,23.7h-6.6h-3.6h-2.2h-9.5v6.6v1.3v56.2h15.2V44.5z"/>
		<polygon class="st1" points="83.3,23.7 82.3,23.7 77.2,23.7 71.5,39.9 82.3,43.5 82.3,44.5 82.3,44.6 82.3,87.9 98.1,87.9
			98.1,49.9 98.1,48.8 98.1,33.3 98.1,32.1 98.1,23.7 85.4,23.7 		"/>
		<path class="st1" d="M348.6,75l0.2-0.7h8.4c0.8-3.4,1.3-6.9,1.3-10.6c0-0.7,0-1.3-0.1-2h-5.6l1.1-3.4l2.5-8l0.5-1.6c0,0,0,0,0,0
			c1.7-5.5,3-10.8,3-10.8h1c0,0,1.3,5.3,3,10.8l3,9.6l1.1,3.4h-8.5c0,0.7,0.1,1.3,0.1,2c0,3.7-0.4,7.2-1.3,10.6h13.7l0.2,0.7
			l4.1,12.9h16.5L388.2,75l-5.8-16.7l-11.9-34.6h-19.6l-3.3,9.5l-0.4,1.1l-8.3,24L333.2,75l-4.5,12.9h15.8L348.6,75z"/>
		<path class="st1" d="M55.2,122.2c-0.7,0-1.5-0.1-2.3-0.1c-7,0-13.2,1.8-18.2,5.2c5.1,3.2,10.7,5.7,16.4,7.3
			c0.6-0.1,1.2-0.1,1.8-0.1c0.8,0,1.5,0.1,2.3,0.2c1.8,0.3,3.2,0.8,4.5,1.6c0.5,0.3,1,0.7,1.4,1.2c1.7,1.6,2.9,3.9,3.7,6.6l0.1,0
			l1-0.2l14.6-2.4c-0.4-1.7-1-3.3-1.7-4.8c-0.1-0.3-0.3-0.6-0.5-0.9c-2.5-4.8-6.6-8.8-12.4-11.1c-0.3-0.1-0.7-0.3-1-0.4
			C62.1,123.1,58.9,122.4,55.2,122.2z"/>
		<path class="st1" d="M65,152.1H52.2v11.3H65h1c0,0,0,1.4,0,1.8h0v16.7c0.3-0.4,0.6-0.8,0.9-1.2h0.4l1.4,7h12.2v-22.5v-13.1H66H65z
			"/>
		<path class="st1" d="M282.5,151.9l-0.3-1l-2.4-6.9l-7.1-20.5H253l-14.3,41.3c2.9,0.8,5.8,1.4,8.9,1.4c0.2,0,0.3,0,0.5,0
			c6.2,0,12-1.9,17.6-4.7h-10.9l4.1-13c1.7-5.5,3-10.8,3-10.8h1c0,0,0.7,2.7,1.6,6.3c0.4,1.4,0.8,3,1.3,4.5l3.5,11l0.3,1l0.3,0.8
			l0.1,0.2h-2.1c-6.2,3.4-12.7,5.7-19.7,5.7c-0.2,0-0.4,0-0.5,0c-3.2-0.1-6.3-0.6-9.2-1.5l-7.6,21.9h15.8l4.2-13.6H274l4.3,13.6
			h16.5l-9.1-26.4L282.5,151.9z"/>
		<path class="st1" d="M67,261.6h-0.2c-0.3,0-0.6,0-0.9,0c-0.3,0-0.7,0-1,0c-3.6,0.2-7,1-10.1,2.2c5.7,1.3,7.2,3.7,7.2,6.6
			c0,4.1-3.2,7-10.2,7c-2.6,0-4.9-0.6-6.9-1.7c-1.2-0.7-2.3-1.6-3.2-2.6c-3.2,3.7-5.6,8.2-6.9,13.1c2.9,1.5,6.3,2.6,10.1,3.2
			c2.1,0.3,4.2,0.5,6.5,0.5c5.4,0,9.8-0.7,13.5-1.9c0.3-0.1,0.7-0.2,1-0.4c9.4-3.6,13.2-10.9,13.2-18.7c0-1.9-0.2-3.6-0.6-5.2
			C74.9,262.3,71,261.6,67,261.6z"/>
		<path class="st1" d="M65,250.9c-1.3-0.4-2.6-0.8-4-1.1l-10.4-2.2c-2.6-0.5-4.4-1.2-5.6-2.1c-1.9-1.3-2.5-2.9-2.5-4.8
			c0-3,2.5-5.9,9.1-5.9c7,0,9.3,4,10.4,7.6l3-0.4v-17c-3.7-1.5-8.2-2.4-13.3-2.4c-16.3,0-25.6,8.6-25.6,19.7
			c0,10.5,5.9,16.6,17.8,19l1.1,0.2l8.2,1.7c3.7-1.6,7.6-2.6,11.8-2.8c0.3,0,0.7,0,1,0c0.3,0,0.6,0,0.9,0H67c3.9,0,7.6,0.7,11.2,1.9
			c-1.6-5-5.5-8.8-12.2-11.2C65.7,251.2,65.3,251,65,250.9z"/>
		<path class="st1" d="M137.1,262.3h6.2h1h4.6h11.7v26.2h16.3v-33.8c-8.3-0.3-16.3-2.2-23.6-5.6h-4.4h-4.6h-1h-6.2v-11.2v-1.4v-12.2
			h-9.4h-1.2h-5.8v64.2h16.3V262.3z"/>
		<path class="st1" d="M34,285.7c1.4-5,3.9-9.6,7.2-13.4c-0.7-1-1.2-2.2-1.6-3.5l-16.6,2C23.9,276.8,27.7,282.2,34,285.7z"/>
		<path class="st1" d="M41.4,345.9c0.2-3.5,1.1-5.9,2.5-7.6c0.2-0.3,0.5-0.5,0.7-0.8c1.5-1.4,3.5-2,5.9-2c4.7,0,7.7,2.8,7.7,7.8
			c0,0.9-0.1,1.9-0.4,2.8c-0.5,1.9-1.7,3.8-3.4,6c2.9,3.5,6,6.8,9.4,9.8c5.3-5.3,8.3-9.8,9.3-15.8c0.2-1.4,0.3-2.8,0.3-4.4
			c0-10.6-8.1-18.3-22.2-18.3c-4.6,0-8.6,0.9-11.9,2.4c-0.3,0.1-0.6,0.3-0.9,0.4c-7.8,3.9-11.6,11.3-11.6,18.6v0.8l14.4,1.4
			L41.4,345.9z"/>
		<path class="st1" d="M48.5,375.7c3.9-3.4,7.3-6.4,10.3-9c1.5-1.4,2.9-2.7,4.2-3.9c-3.3-3-6.4-6.2-9.3-9.7c-3,3.6-7.6,7.9-14,13.7
			c-3.6,3.3-7.8,7-12.6,11.3v10.9H74v-12.9H48.5V375.7z"/>
		<path class="st1" d="M279,246.8c-3.2-14.7-14-23.9-30.5-23.9c-16.9,0-28,9.8-30.9,25.2c-0.1,0.4-0.1,0.7-0.2,1.1
			c-0.4,2.3-0.5,4.7-0.5,7.2c0,20.2,11.6,33.5,31.4,33.5c19.8,0,31.6-13.3,31.6-33.5c0-3-0.3-5.8-0.8-8.4
			C279.1,247.5,279.1,247.2,279,246.8z M248.4,276.9c-8.2,0-14.4-6-14.4-20.6c0-4.2,0.5-7.7,1.5-10.6c0.1-0.4,0.2-0.7,0.4-1.1
			c2.4-6.2,7-8.9,12.5-8.9c5.3,0,9.7,2.5,12.2,8.2c0.2,0.3,0.3,0.7,0.4,1c1.1,3,1.7,6.7,1.7,11.2
			C262.8,270.8,256.6,276.9,248.4,276.9z"/>
		<polygon class="st1" points="344.1,288.4 344.8,285.7 354.2,248.4 360.8,274.2 364.4,288.4 384,288.4 387.3,274.2 398.6,224.3
			383.5,224.3 373.8,270 364.4,233.8 364.1,232.7 361.9,224.3 347.9,224.3 344.8,236.4 343.8,240.3 341.7,248.4 341.4,249.6
			336,270.3 332.2,252.3 332,251.4 326.2,224.3 310,224.3 316.4,252.6 316.6,253.6 324.5,288.4 343.8,288.4 		"/>
		<polygon class="st1" points="240.9,338.5 247.1,349.5 257.9,342.7 257.9,354.8 257.9,355.2 257.9,356.4 257.9,359 257.9,372.8
			257.9,373.8 257.9,388.8 273.4,388.8 273.4,373.8 273.4,372.8 273.4,354.8 273.4,333.2 273.4,331.9 273.4,324.7 262.7,324.7 		"/>
	</g>
</g>
</svg>
