<svg version="1.1" xmlns="http://www.w3.org/2000/svg" x="0px" y="0px" viewBox="0 0 109.4 27.6" xml:space="preserve">
  <g>
    <g>
      <g>
        <g>
          <g>
            <path
              class="st0"
              d="M17.2,22.7v-4.5h1.9v-7.9c-0.6,2.1-1.3,4.2-2,6.2s-1.2,4.1-1.9,6.1h-3.4c-0.6-1.8-1.2-3.6-1.8-5.4
            c-0.8-2.3-1.4-4.6-2.3-6.8V18h2.1v4.5L0,22.4v-4.5h2V8.8H0V4.3l13.7,0.1c0.5,1.6,1.1,3.2,1.6,4.8c0.5-1.7,1.2-3.2,1.8-4.8
            l11.8,0.1V9h-2v9.1h2v4.5L17.2,22.7z"/>
          </g>
        </g>
      </g>
    </g>
    <g>
      <polygon class="st0" points="39.2,22.8 39.3,18.3 41.3,18.3 41.3,9.2 39.3,9.2 39.3,4.7 51.4,4.7 51.4,9.2 49.3,9.2 49.3,18.3
      51.3,18.3 51.3,22.9 		"/>
    </g>
    <g>
      <g>
        <g>
          <g>
            <path class="st0" d="M74.9,13.3v-0.2c0-1.7-0.5-4-2.6-4c-2.7,0-2.9,3-2.9,5s0.3,5,2.9,5.1c2.4,0,2.9-2,2.7-4h5.2v0.9
            c-0.1,5.3-4.2,7.4-9.1,7.3c-6.1,0-10.2-3.1-10.2-9.4c0-5.4,3.4-9.5,8.9-9.4c2.6,0,4,0.8,5.4,2.9L75.3,5h4.9v8.5L74.9,13.3z"/>
          </g>
        </g>
      </g>
      <g>
        <g>
          <g>
            <path
              class="st0"
              d="M97,10.8c-0.3,1.2-0.7,2.4-1,3.6h2C97.7,13.2,97.3,12,97,10.8 M97.4,23.1v-4.5h1.7
            c-0.2-0.7-0.4-1.4-0.6-2.1h-3.1c-0.2,0.7-0.4,1.4-0.6,2.1h1.9v4.5h-8.3v-4.5H90c1.5-4.5,3-9.1,4.6-13.6h8.2
            c1.4,4.6,2.8,9.1,4.4,13.6h2.2v4.5H97.4z"/>
          </g>
        </g>
      </g>
      <g>
        <g>
          <g>
            <path class="st0" d="M56.3,27.5l-0.6,0l0.2-27.3l0.6,0L56.3,27.5z M34.2,27.3l-0.6,0L33.7,0l0.6,0L34.2,27.3z"/>
          </g>
        </g>
      </g>
    </g>
    <g>

      <rect x="71.4" y="13.7" transform="matrix(0.3226 -0.9465 0.9465 0.3226 44.8397 90.5854)" class="st0" width="28.7" height="0.6"/>
    </g>
  </g>
</svg>
